G04 #@! TF.FileFunction,Legend,Bot*
%FSLAX46Y46*%
G04 Gerber Fmt 4.6, Leading zero omitted, Abs format (unit mm)*
G04 Created by KiCad (PCBNEW 4.0.7) date 11/26/17 09:03:08*
%MOMM*%
%LPD*%
G01*
G04 APERTURE LIST*
%ADD10C,0.100000*%
%ADD11C,0.010000*%
G04 APERTURE END LIST*
D10*
D11*
G36*
X141689634Y-149744115D02*
X141418894Y-149456443D01*
X140977589Y-149312245D01*
X140603007Y-149604330D01*
X140549946Y-149673813D01*
X140259194Y-150324735D01*
X140168896Y-151087045D01*
X140276070Y-151758633D01*
X140577735Y-152137388D01*
X140586338Y-152140821D01*
X141090180Y-152105407D01*
X141500637Y-151692599D01*
X141769503Y-151057828D01*
X141848571Y-150356523D01*
X141689634Y-149744115D01*
X141689634Y-149744115D01*
G37*
X141689634Y-149744115D02*
X141418894Y-149456443D01*
X140977589Y-149312245D01*
X140603007Y-149604330D01*
X140549946Y-149673813D01*
X140259194Y-150324735D01*
X140168896Y-151087045D01*
X140276070Y-151758633D01*
X140577735Y-152137388D01*
X140586338Y-152140821D01*
X141090180Y-152105407D01*
X141500637Y-151692599D01*
X141769503Y-151057828D01*
X141848571Y-150356523D01*
X141689634Y-149744115D01*
G36*
X143249899Y-144288958D02*
X142831594Y-144208500D01*
X142364675Y-144395192D01*
X141933186Y-145007161D01*
X141773334Y-145344816D01*
X141279003Y-146570663D01*
X141059258Y-147403737D01*
X141104642Y-147904328D01*
X141339351Y-148111457D01*
X141854740Y-148195968D01*
X142284417Y-147954930D01*
X142704158Y-147318215D01*
X143070108Y-146509749D01*
X143456664Y-145395223D01*
X143517977Y-144668294D01*
X143249899Y-144288958D01*
X143249899Y-144288958D01*
G37*
X143249899Y-144288958D02*
X142831594Y-144208500D01*
X142364675Y-144395192D01*
X141933186Y-145007161D01*
X141773334Y-145344816D01*
X141279003Y-146570663D01*
X141059258Y-147403737D01*
X141104642Y-147904328D01*
X141339351Y-148111457D01*
X141854740Y-148195968D01*
X142284417Y-147954930D01*
X142704158Y-147318215D01*
X143070108Y-146509749D01*
X143456664Y-145395223D01*
X143517977Y-144668294D01*
X143249899Y-144288958D01*
G36*
X146650383Y-140101642D02*
X146094851Y-140074098D01*
X145343340Y-140532170D01*
X144937157Y-140897394D01*
X144108634Y-141753750D01*
X143655081Y-142376068D01*
X143522624Y-142849741D01*
X143565068Y-143072185D01*
X143895741Y-143338651D01*
X144275376Y-143406395D01*
X144798357Y-143223316D01*
X145454751Y-142756802D01*
X146122440Y-142130937D01*
X146679305Y-141469804D01*
X147003230Y-140897486D01*
X147024725Y-140612786D01*
X146650383Y-140101642D01*
X146650383Y-140101642D01*
G37*
X146650383Y-140101642D02*
X146094851Y-140074098D01*
X145343340Y-140532170D01*
X144937157Y-140897394D01*
X144108634Y-141753750D01*
X143655081Y-142376068D01*
X143522624Y-142849741D01*
X143565068Y-143072185D01*
X143895741Y-143338651D01*
X144275376Y-143406395D01*
X144798357Y-143223316D01*
X145454751Y-142756802D01*
X146122440Y-142130937D01*
X146679305Y-141469804D01*
X147003230Y-140897486D01*
X147024725Y-140612786D01*
X146650383Y-140101642D01*
G36*
X151486485Y-137529976D02*
X151090999Y-137173464D01*
X151077077Y-137164632D01*
X150671920Y-137089007D01*
X150036090Y-137290040D01*
X149221411Y-137710433D01*
X148268763Y-138362605D01*
X147742350Y-138984427D01*
X147676786Y-139525819D01*
X147817836Y-139741082D01*
X148161857Y-139910745D01*
X148673916Y-139820070D01*
X149444484Y-139440034D01*
X150201785Y-138976296D01*
X151074334Y-138364215D01*
X151491749Y-137904501D01*
X151486485Y-137529976D01*
X151486485Y-137529976D01*
G37*
X151486485Y-137529976D02*
X151090999Y-137173464D01*
X151077077Y-137164632D01*
X150671920Y-137089007D01*
X150036090Y-137290040D01*
X149221411Y-137710433D01*
X148268763Y-138362605D01*
X147742350Y-138984427D01*
X147676786Y-139525819D01*
X147817836Y-139741082D01*
X148161857Y-139910745D01*
X148673916Y-139820070D01*
X149444484Y-139440034D01*
X150201785Y-138976296D01*
X151074334Y-138364215D01*
X151491749Y-137904501D01*
X151486485Y-137529976D01*
G36*
X153233986Y-146724712D02*
X153080015Y-146202298D01*
X152725970Y-145148661D01*
X152456752Y-144503383D01*
X152213107Y-144159867D01*
X151935781Y-144011512D01*
X151851304Y-143991844D01*
X151369186Y-144107776D01*
X151117306Y-144621030D01*
X151126245Y-145432859D01*
X151245973Y-145946395D01*
X151715923Y-147236175D01*
X152190656Y-147994715D01*
X152673754Y-148225511D01*
X153168797Y-147932059D01*
X153219647Y-147873351D01*
X153348564Y-147454439D01*
X153233986Y-146724712D01*
X153233986Y-146724712D01*
G37*
X153233986Y-146724712D02*
X153080015Y-146202298D01*
X152725970Y-145148661D01*
X152456752Y-144503383D01*
X152213107Y-144159867D01*
X151935781Y-144011512D01*
X151851304Y-143991844D01*
X151369186Y-144107776D01*
X151117306Y-144621030D01*
X151126245Y-145432859D01*
X151245973Y-145946395D01*
X151715923Y-147236175D01*
X152190656Y-147994715D01*
X152673754Y-148225511D01*
X153168797Y-147932059D01*
X153219647Y-147873351D01*
X153348564Y-147454439D01*
X153233986Y-146724712D01*
G36*
X152815461Y-139173330D02*
X152595807Y-138859989D01*
X152098995Y-138697757D01*
X151659937Y-139014440D01*
X151336426Y-139754218D01*
X151252013Y-140157998D01*
X151121123Y-140967507D01*
X151012326Y-141627016D01*
X151005328Y-141668500D01*
X150988782Y-142277220D01*
X151043013Y-142537448D01*
X151385402Y-142823590D01*
X151650938Y-142871658D01*
X152150378Y-142741926D01*
X152492234Y-142297154D01*
X152721586Y-141453982D01*
X152826735Y-140697463D01*
X152893444Y-139745067D01*
X152815461Y-139173330D01*
X152815461Y-139173330D01*
G37*
X152815461Y-139173330D02*
X152595807Y-138859989D01*
X152098995Y-138697757D01*
X151659937Y-139014440D01*
X151336426Y-139754218D01*
X151252013Y-140157998D01*
X151121123Y-140967507D01*
X151012326Y-141627016D01*
X151005328Y-141668500D01*
X150988782Y-142277220D01*
X151043013Y-142537448D01*
X151385402Y-142823590D01*
X151650938Y-142871658D01*
X152150378Y-142741926D01*
X152492234Y-142297154D01*
X152721586Y-141453982D01*
X152826735Y-140697463D01*
X152893444Y-139745067D01*
X152815461Y-139173330D01*
G36*
X156556169Y-136583891D02*
X156309528Y-136370543D01*
X155729759Y-136269476D01*
X155312660Y-136238617D01*
X154543094Y-136172688D01*
X154189620Y-136047059D01*
X154134244Y-135775581D01*
X154214060Y-135436512D01*
X154424110Y-134480518D01*
X154393790Y-133924297D01*
X154102966Y-133680345D01*
X153802397Y-133647448D01*
X153414338Y-133714430D01*
X153113727Y-133989624D01*
X152816237Y-134584404D01*
X152543328Y-135310333D01*
X152235045Y-136220775D01*
X152111641Y-136776591D01*
X152161313Y-137120408D01*
X152370948Y-137393542D01*
X152759144Y-137626810D01*
X153405067Y-137738134D01*
X154431489Y-137745567D01*
X154699491Y-137735920D01*
X155689321Y-137684951D01*
X156259825Y-137603129D01*
X156526227Y-137445386D01*
X156603749Y-137166656D01*
X156607711Y-136989553D01*
X156556169Y-136583891D01*
X156556169Y-136583891D01*
G37*
X156556169Y-136583891D02*
X156309528Y-136370543D01*
X155729759Y-136269476D01*
X155312660Y-136238617D01*
X154543094Y-136172688D01*
X154189620Y-136047059D01*
X154134244Y-135775581D01*
X154214060Y-135436512D01*
X154424110Y-134480518D01*
X154393790Y-133924297D01*
X154102966Y-133680345D01*
X153802397Y-133647448D01*
X153414338Y-133714430D01*
X153113727Y-133989624D01*
X152816237Y-134584404D01*
X152543328Y-135310333D01*
X152235045Y-136220775D01*
X152111641Y-136776591D01*
X152161313Y-137120408D01*
X152370948Y-137393542D01*
X152759144Y-137626810D01*
X153405067Y-137738134D01*
X154431489Y-137745567D01*
X154699491Y-137735920D01*
X155689321Y-137684951D01*
X156259825Y-137603129D01*
X156526227Y-137445386D01*
X156603749Y-137166656D01*
X156607711Y-136989553D01*
X156556169Y-136583891D01*
G36*
X157831457Y-149446992D02*
X157428900Y-149215602D01*
X156692631Y-148970500D01*
X155804600Y-148752515D01*
X154946755Y-148602473D01*
X154301045Y-148561204D01*
X154088659Y-148607133D01*
X153811877Y-149019898D01*
X153980585Y-149539897D01*
X154434946Y-149959350D01*
X155082361Y-150240196D01*
X155983786Y-150468575D01*
X156399177Y-150532633D01*
X157222176Y-150597520D01*
X157669255Y-150520962D01*
X157887537Y-150272747D01*
X157908134Y-150222784D01*
X157938383Y-149676545D01*
X157831457Y-149446992D01*
X157831457Y-149446992D01*
G37*
X157831457Y-149446992D02*
X157428900Y-149215602D01*
X156692631Y-148970500D01*
X155804600Y-148752515D01*
X154946755Y-148602473D01*
X154301045Y-148561204D01*
X154088659Y-148607133D01*
X153811877Y-149019898D01*
X153980585Y-149539897D01*
X154434946Y-149959350D01*
X155082361Y-150240196D01*
X155983786Y-150468575D01*
X156399177Y-150532633D01*
X157222176Y-150597520D01*
X157669255Y-150520962D01*
X157887537Y-150272747D01*
X157908134Y-150222784D01*
X157938383Y-149676545D01*
X157831457Y-149446992D01*
G36*
X155872454Y-130035830D02*
X155516817Y-129765201D01*
X155040621Y-129874631D01*
X154545844Y-130431728D01*
X154475630Y-130559433D01*
X154138179Y-131444659D01*
X154107430Y-132131242D01*
X154387718Y-132504478D01*
X154401921Y-132509983D01*
X154992525Y-132529075D01*
X155488511Y-132079190D01*
X155814141Y-131446833D01*
X156005554Y-130618910D01*
X155872454Y-130035830D01*
X155872454Y-130035830D01*
G37*
X155872454Y-130035830D02*
X155516817Y-129765201D01*
X155040621Y-129874631D01*
X154545844Y-130431728D01*
X154475630Y-130559433D01*
X154138179Y-131444659D01*
X154107430Y-132131242D01*
X154387718Y-132504478D01*
X154401921Y-132509983D01*
X154992525Y-132529075D01*
X155488511Y-132079190D01*
X155814141Y-131446833D01*
X156005554Y-130618910D01*
X155872454Y-130035830D01*
G36*
X180039652Y-112987940D02*
X179523988Y-112385025D01*
X178311068Y-111528943D01*
X176893525Y-111108585D01*
X175418168Y-111160763D01*
X175033930Y-111259113D01*
X174243275Y-111370596D01*
X173819312Y-111134418D01*
X173800762Y-110579541D01*
X173867225Y-110386395D01*
X174074142Y-109386638D01*
X174049908Y-108190993D01*
X173803982Y-107081117D01*
X173751690Y-106946909D01*
X173184256Y-106035309D01*
X172396978Y-105321320D01*
X171551180Y-104937313D01*
X171263640Y-104905342D01*
X170499634Y-105043796D01*
X169714103Y-105386513D01*
X169123312Y-105824531D01*
X168959952Y-106066032D01*
X168983221Y-106565820D01*
X169358951Y-106911330D01*
X169910737Y-107027309D01*
X170462175Y-106838507D01*
X170564165Y-106750362D01*
X171073153Y-106515356D01*
X171586711Y-106709991D01*
X172033955Y-107234521D01*
X172344004Y-107989201D01*
X172445973Y-108874284D01*
X172397576Y-109330313D01*
X172237662Y-109956823D01*
X171987659Y-110181173D01*
X171502070Y-110133060D01*
X171498037Y-110132186D01*
X170736872Y-110119419D01*
X169665415Y-110290973D01*
X168457860Y-110604857D01*
X167288401Y-111019081D01*
X166692714Y-111290537D01*
X166130530Y-111548187D01*
X165636192Y-111658492D01*
X165029301Y-111628465D01*
X164129462Y-111465120D01*
X163826658Y-111401973D01*
X161762477Y-111118602D01*
X159860340Y-111151019D01*
X158197173Y-111483729D01*
X156849903Y-112101235D01*
X155895454Y-112988039D01*
X155885668Y-113001700D01*
X155433129Y-113999209D01*
X155218858Y-115246138D01*
X155263679Y-116503382D01*
X155505468Y-117367925D01*
X155946089Y-118123449D01*
X156439818Y-118719245D01*
X156997183Y-119238510D01*
X156427482Y-120694558D01*
X156066935Y-121885361D01*
X155882303Y-123246926D01*
X155840333Y-124423237D01*
X155894542Y-126157804D01*
X156103491Y-127442764D01*
X156491007Y-128346972D01*
X157080914Y-128939285D01*
X157474681Y-129146518D01*
X158680122Y-129453228D01*
X160199050Y-129554291D01*
X161856963Y-129462718D01*
X162243566Y-129398094D01*
X162243566Y-127825909D01*
X161876789Y-127774081D01*
X161463193Y-127548049D01*
X160908359Y-127088327D01*
X160117869Y-126335431D01*
X159629884Y-125855281D01*
X157503172Y-123754816D01*
X157658171Y-122572788D01*
X157781363Y-121826726D01*
X157909941Y-121333447D01*
X157954676Y-121249254D01*
X158181030Y-121380022D01*
X158716194Y-121832308D01*
X159494228Y-122546176D01*
X159685942Y-122729970D01*
X159685942Y-117894200D01*
X158420393Y-117829523D01*
X157504559Y-117475740D01*
X157004852Y-116873968D01*
X156835519Y-116004482D01*
X156907835Y-114988057D01*
X157187488Y-114080545D01*
X157429617Y-113706621D01*
X158242239Y-113160086D01*
X159438029Y-112822392D01*
X160897638Y-112719560D01*
X161731773Y-112768608D01*
X163038900Y-112959674D01*
X164582879Y-113271398D01*
X166147212Y-113653001D01*
X167515402Y-114053705D01*
X168104553Y-114263323D01*
X168906658Y-114577937D01*
X167302448Y-115397083D01*
X165109459Y-116421214D01*
X163077617Y-117183285D01*
X161254064Y-117676534D01*
X159685942Y-117894200D01*
X159685942Y-122729970D01*
X160449191Y-123461691D01*
X161157921Y-124160802D01*
X162407493Y-125437117D01*
X163290566Y-126407095D01*
X163795374Y-127056815D01*
X163910152Y-127372360D01*
X163889475Y-127392071D01*
X163411512Y-127568497D01*
X162702749Y-127753307D01*
X162657943Y-127763017D01*
X162243566Y-127825909D01*
X162243566Y-129398094D01*
X163479359Y-129191518D01*
X164891735Y-128753704D01*
X165305844Y-128562642D01*
X165487686Y-128493028D01*
X165487686Y-124737181D01*
X162989558Y-122249440D01*
X161949881Y-121201331D01*
X161272665Y-120460362D01*
X160935829Y-119962097D01*
X160917290Y-119642095D01*
X161194969Y-119435920D01*
X161746785Y-119279131D01*
X161956081Y-119233455D01*
X162382039Y-119187346D01*
X162779929Y-119296933D01*
X163259561Y-119629386D01*
X163930745Y-120251872D01*
X164419289Y-120740139D01*
X166079392Y-122417974D01*
X165783539Y-123577578D01*
X165487686Y-124737181D01*
X165487686Y-128493028D01*
X165818253Y-128366478D01*
X166211735Y-128492519D01*
X166600335Y-128854327D01*
X167080548Y-129206660D01*
X167080548Y-119626135D01*
X166320788Y-118898238D01*
X165859884Y-118401157D01*
X165789131Y-118064949D01*
X166150108Y-117776598D01*
X166843126Y-117478523D01*
X167469155Y-117290833D01*
X167861182Y-117281701D01*
X167887593Y-117299260D01*
X167888836Y-117621123D01*
X167696941Y-118237748D01*
X167567544Y-118546171D01*
X167080548Y-119626135D01*
X167080548Y-129206660D01*
X167273340Y-129348113D01*
X168135960Y-129738373D01*
X168292841Y-129785309D01*
X169526598Y-129921269D01*
X169526598Y-128244795D01*
X168548211Y-128102319D01*
X167767291Y-127749648D01*
X167451658Y-127420607D01*
X167225996Y-126632593D01*
X167202022Y-125488071D01*
X167371782Y-124122462D01*
X167727323Y-122671185D01*
X167731393Y-122657981D01*
X168120020Y-121538671D01*
X168650234Y-120190782D01*
X169222905Y-118863230D01*
X169366365Y-118552449D01*
X170438707Y-116268500D01*
X170837020Y-117204241D01*
X171408156Y-118841793D01*
X171880316Y-120751722D01*
X172198762Y-122675365D01*
X172308132Y-124155869D01*
X172237209Y-125741132D01*
X171954343Y-126885197D01*
X171432092Y-127648765D01*
X170643015Y-128092538D01*
X170510440Y-128132394D01*
X169526598Y-128244795D01*
X169526598Y-129921269D01*
X169833326Y-129955071D01*
X171231848Y-129640393D01*
X172414567Y-128887216D01*
X172602246Y-128646441D01*
X172602246Y-116803237D01*
X171922625Y-115304636D01*
X171489188Y-114435216D01*
X171057066Y-113891156D01*
X170444128Y-113495532D01*
X169737599Y-113182079D01*
X168871044Y-112766050D01*
X168514750Y-112439764D01*
X168674305Y-112193497D01*
X169355298Y-112017525D01*
X170469801Y-111907903D01*
X171412067Y-111866218D01*
X171990123Y-111922304D01*
X172372007Y-112122391D01*
X172725758Y-112512705D01*
X172741689Y-112532915D01*
X173169181Y-113307633D01*
X173267849Y-114210626D01*
X173046132Y-115378338D01*
X172939694Y-115733764D01*
X172602246Y-116803237D01*
X172602246Y-128646441D01*
X173307642Y-127741481D01*
X173816863Y-126348498D01*
X174004913Y-125355484D01*
X174086610Y-124502508D01*
X174058912Y-123614272D01*
X173918774Y-122515481D01*
X173731085Y-121408640D01*
X173558191Y-120381526D01*
X173493635Y-119643650D01*
X173556656Y-118997198D01*
X173766499Y-118244357D01*
X174141465Y-117189889D01*
X174510165Y-116055567D01*
X174785055Y-114973517D01*
X174917329Y-114142505D01*
X174922448Y-114009415D01*
X174968129Y-113318433D01*
X175185782Y-112976148D01*
X175696323Y-112798962D01*
X175723627Y-112792914D01*
X176647171Y-112761601D01*
X177599290Y-112990779D01*
X178372076Y-113411675D01*
X178690048Y-113774170D01*
X178836281Y-114407961D01*
X178648278Y-115107176D01*
X178459808Y-115717802D01*
X178572591Y-116122598D01*
X178776395Y-116352918D01*
X179106540Y-116614934D01*
X179392208Y-116559797D01*
X179809917Y-116139790D01*
X179885586Y-116053065D01*
X180468549Y-115056669D01*
X180519517Y-114031028D01*
X180039652Y-112987940D01*
X180039652Y-112987940D01*
G37*
X180039652Y-112987940D02*
X179523988Y-112385025D01*
X178311068Y-111528943D01*
X176893525Y-111108585D01*
X175418168Y-111160763D01*
X175033930Y-111259113D01*
X174243275Y-111370596D01*
X173819312Y-111134418D01*
X173800762Y-110579541D01*
X173867225Y-110386395D01*
X174074142Y-109386638D01*
X174049908Y-108190993D01*
X173803982Y-107081117D01*
X173751690Y-106946909D01*
X173184256Y-106035309D01*
X172396978Y-105321320D01*
X171551180Y-104937313D01*
X171263640Y-104905342D01*
X170499634Y-105043796D01*
X169714103Y-105386513D01*
X169123312Y-105824531D01*
X168959952Y-106066032D01*
X168983221Y-106565820D01*
X169358951Y-106911330D01*
X169910737Y-107027309D01*
X170462175Y-106838507D01*
X170564165Y-106750362D01*
X171073153Y-106515356D01*
X171586711Y-106709991D01*
X172033955Y-107234521D01*
X172344004Y-107989201D01*
X172445973Y-108874284D01*
X172397576Y-109330313D01*
X172237662Y-109956823D01*
X171987659Y-110181173D01*
X171502070Y-110133060D01*
X171498037Y-110132186D01*
X170736872Y-110119419D01*
X169665415Y-110290973D01*
X168457860Y-110604857D01*
X167288401Y-111019081D01*
X166692714Y-111290537D01*
X166130530Y-111548187D01*
X165636192Y-111658492D01*
X165029301Y-111628465D01*
X164129462Y-111465120D01*
X163826658Y-111401973D01*
X161762477Y-111118602D01*
X159860340Y-111151019D01*
X158197173Y-111483729D01*
X156849903Y-112101235D01*
X155895454Y-112988039D01*
X155885668Y-113001700D01*
X155433129Y-113999209D01*
X155218858Y-115246138D01*
X155263679Y-116503382D01*
X155505468Y-117367925D01*
X155946089Y-118123449D01*
X156439818Y-118719245D01*
X156997183Y-119238510D01*
X156427482Y-120694558D01*
X156066935Y-121885361D01*
X155882303Y-123246926D01*
X155840333Y-124423237D01*
X155894542Y-126157804D01*
X156103491Y-127442764D01*
X156491007Y-128346972D01*
X157080914Y-128939285D01*
X157474681Y-129146518D01*
X158680122Y-129453228D01*
X160199050Y-129554291D01*
X161856963Y-129462718D01*
X162243566Y-129398094D01*
X162243566Y-127825909D01*
X161876789Y-127774081D01*
X161463193Y-127548049D01*
X160908359Y-127088327D01*
X160117869Y-126335431D01*
X159629884Y-125855281D01*
X157503172Y-123754816D01*
X157658171Y-122572788D01*
X157781363Y-121826726D01*
X157909941Y-121333447D01*
X157954676Y-121249254D01*
X158181030Y-121380022D01*
X158716194Y-121832308D01*
X159494228Y-122546176D01*
X159685942Y-122729970D01*
X159685942Y-117894200D01*
X158420393Y-117829523D01*
X157504559Y-117475740D01*
X157004852Y-116873968D01*
X156835519Y-116004482D01*
X156907835Y-114988057D01*
X157187488Y-114080545D01*
X157429617Y-113706621D01*
X158242239Y-113160086D01*
X159438029Y-112822392D01*
X160897638Y-112719560D01*
X161731773Y-112768608D01*
X163038900Y-112959674D01*
X164582879Y-113271398D01*
X166147212Y-113653001D01*
X167515402Y-114053705D01*
X168104553Y-114263323D01*
X168906658Y-114577937D01*
X167302448Y-115397083D01*
X165109459Y-116421214D01*
X163077617Y-117183285D01*
X161254064Y-117676534D01*
X159685942Y-117894200D01*
X159685942Y-122729970D01*
X160449191Y-123461691D01*
X161157921Y-124160802D01*
X162407493Y-125437117D01*
X163290566Y-126407095D01*
X163795374Y-127056815D01*
X163910152Y-127372360D01*
X163889475Y-127392071D01*
X163411512Y-127568497D01*
X162702749Y-127753307D01*
X162657943Y-127763017D01*
X162243566Y-127825909D01*
X162243566Y-129398094D01*
X163479359Y-129191518D01*
X164891735Y-128753704D01*
X165305844Y-128562642D01*
X165487686Y-128493028D01*
X165487686Y-124737181D01*
X162989558Y-122249440D01*
X161949881Y-121201331D01*
X161272665Y-120460362D01*
X160935829Y-119962097D01*
X160917290Y-119642095D01*
X161194969Y-119435920D01*
X161746785Y-119279131D01*
X161956081Y-119233455D01*
X162382039Y-119187346D01*
X162779929Y-119296933D01*
X163259561Y-119629386D01*
X163930745Y-120251872D01*
X164419289Y-120740139D01*
X166079392Y-122417974D01*
X165783539Y-123577578D01*
X165487686Y-124737181D01*
X165487686Y-128493028D01*
X165818253Y-128366478D01*
X166211735Y-128492519D01*
X166600335Y-128854327D01*
X167080548Y-129206660D01*
X167080548Y-119626135D01*
X166320788Y-118898238D01*
X165859884Y-118401157D01*
X165789131Y-118064949D01*
X166150108Y-117776598D01*
X166843126Y-117478523D01*
X167469155Y-117290833D01*
X167861182Y-117281701D01*
X167887593Y-117299260D01*
X167888836Y-117621123D01*
X167696941Y-118237748D01*
X167567544Y-118546171D01*
X167080548Y-119626135D01*
X167080548Y-129206660D01*
X167273340Y-129348113D01*
X168135960Y-129738373D01*
X168292841Y-129785309D01*
X169526598Y-129921269D01*
X169526598Y-128244795D01*
X168548211Y-128102319D01*
X167767291Y-127749648D01*
X167451658Y-127420607D01*
X167225996Y-126632593D01*
X167202022Y-125488071D01*
X167371782Y-124122462D01*
X167727323Y-122671185D01*
X167731393Y-122657981D01*
X168120020Y-121538671D01*
X168650234Y-120190782D01*
X169222905Y-118863230D01*
X169366365Y-118552449D01*
X170438707Y-116268500D01*
X170837020Y-117204241D01*
X171408156Y-118841793D01*
X171880316Y-120751722D01*
X172198762Y-122675365D01*
X172308132Y-124155869D01*
X172237209Y-125741132D01*
X171954343Y-126885197D01*
X171432092Y-127648765D01*
X170643015Y-128092538D01*
X170510440Y-128132394D01*
X169526598Y-128244795D01*
X169526598Y-129921269D01*
X169833326Y-129955071D01*
X171231848Y-129640393D01*
X172414567Y-128887216D01*
X172602246Y-128646441D01*
X172602246Y-116803237D01*
X171922625Y-115304636D01*
X171489188Y-114435216D01*
X171057066Y-113891156D01*
X170444128Y-113495532D01*
X169737599Y-113182079D01*
X168871044Y-112766050D01*
X168514750Y-112439764D01*
X168674305Y-112193497D01*
X169355298Y-112017525D01*
X170469801Y-111907903D01*
X171412067Y-111866218D01*
X171990123Y-111922304D01*
X172372007Y-112122391D01*
X172725758Y-112512705D01*
X172741689Y-112532915D01*
X173169181Y-113307633D01*
X173267849Y-114210626D01*
X173046132Y-115378338D01*
X172939694Y-115733764D01*
X172602246Y-116803237D01*
X172602246Y-128646441D01*
X173307642Y-127741481D01*
X173816863Y-126348498D01*
X174004913Y-125355484D01*
X174086610Y-124502508D01*
X174058912Y-123614272D01*
X173918774Y-122515481D01*
X173731085Y-121408640D01*
X173558191Y-120381526D01*
X173493635Y-119643650D01*
X173556656Y-118997198D01*
X173766499Y-118244357D01*
X174141465Y-117189889D01*
X174510165Y-116055567D01*
X174785055Y-114973517D01*
X174917329Y-114142505D01*
X174922448Y-114009415D01*
X174968129Y-113318433D01*
X175185782Y-112976148D01*
X175696323Y-112798962D01*
X175723627Y-112792914D01*
X176647171Y-112761601D01*
X177599290Y-112990779D01*
X178372076Y-113411675D01*
X178690048Y-113774170D01*
X178836281Y-114407961D01*
X178648278Y-115107176D01*
X178459808Y-115717802D01*
X178572591Y-116122598D01*
X178776395Y-116352918D01*
X179106540Y-116614934D01*
X179392208Y-116559797D01*
X179809917Y-116139790D01*
X179885586Y-116053065D01*
X180468549Y-115056669D01*
X180519517Y-114031028D01*
X180039652Y-112987940D01*
G36*
X161107865Y-139637497D02*
X160716776Y-139031518D01*
X160141025Y-138368077D01*
X159500019Y-137781697D01*
X158913169Y-137406903D01*
X158814376Y-137369669D01*
X158285449Y-137388412D01*
X157778095Y-137646783D01*
X157545061Y-138014318D01*
X157544943Y-138024922D01*
X157724178Y-138280513D01*
X158193870Y-138793285D01*
X158854339Y-139454719D01*
X158889243Y-139488454D01*
X159788262Y-140262422D01*
X160446454Y-140595398D01*
X160908767Y-140498357D01*
X161194882Y-140051492D01*
X161107865Y-139637497D01*
X161107865Y-139637497D01*
G37*
X161107865Y-139637497D02*
X160716776Y-139031518D01*
X160141025Y-138368077D01*
X159500019Y-137781697D01*
X158913169Y-137406903D01*
X158814376Y-137369669D01*
X158285449Y-137388412D01*
X157778095Y-137646783D01*
X157545061Y-138014318D01*
X157544943Y-138024922D01*
X157724178Y-138280513D01*
X158193870Y-138793285D01*
X158854339Y-139454719D01*
X158889243Y-139488454D01*
X159788262Y-140262422D01*
X160446454Y-140595398D01*
X160908767Y-140498357D01*
X161194882Y-140051492D01*
X161107865Y-139637497D01*
G36*
X162386884Y-147057364D02*
X162123500Y-146900775D01*
X161778662Y-146817238D01*
X161371943Y-146984477D01*
X160790004Y-147464630D01*
X160385605Y-147853591D01*
X159565588Y-148781736D01*
X159186542Y-149504693D01*
X159257297Y-149998963D01*
X159513854Y-150173897D01*
X160051363Y-150131515D01*
X160756580Y-149764130D01*
X161477312Y-149175233D01*
X162061365Y-148468313D01*
X162090208Y-148421997D01*
X162484871Y-147725584D01*
X162582664Y-147320957D01*
X162386884Y-147057364D01*
X162386884Y-147057364D01*
G37*
X162386884Y-147057364D02*
X162123500Y-146900775D01*
X161778662Y-146817238D01*
X161371943Y-146984477D01*
X160790004Y-147464630D01*
X160385605Y-147853591D01*
X159565588Y-148781736D01*
X159186542Y-149504693D01*
X159257297Y-149998963D01*
X159513854Y-150173897D01*
X160051363Y-150131515D01*
X160756580Y-149764130D01*
X161477312Y-149175233D01*
X162061365Y-148468313D01*
X162090208Y-148421997D01*
X162484871Y-147725584D01*
X162582664Y-147320957D01*
X162386884Y-147057364D01*
G36*
X163007011Y-144013460D02*
X162714887Y-142816822D01*
X162451132Y-142067176D01*
X162172102Y-141681648D01*
X161834149Y-141577364D01*
X161728795Y-141586438D01*
X161312252Y-141799103D01*
X161120139Y-142330784D01*
X161139482Y-143249921D01*
X161257133Y-144074816D01*
X161489452Y-145080911D01*
X161787723Y-145633170D01*
X162196952Y-145812086D01*
X162228820Y-145812711D01*
X162682488Y-145578059D01*
X162979527Y-144993109D01*
X163042733Y-144236368D01*
X163007011Y-144013460D01*
X163007011Y-144013460D01*
G37*
X163007011Y-144013460D02*
X162714887Y-142816822D01*
X162451132Y-142067176D01*
X162172102Y-141681648D01*
X161834149Y-141577364D01*
X161728795Y-141586438D01*
X161312252Y-141799103D01*
X161120139Y-142330784D01*
X161139482Y-143249921D01*
X161257133Y-144074816D01*
X161489452Y-145080911D01*
X161787723Y-145633170D01*
X162196952Y-145812086D01*
X162228820Y-145812711D01*
X162682488Y-145578059D01*
X162979527Y-144993109D01*
X163042733Y-144236368D01*
X163007011Y-144013460D01*
M02*
