M48
;DRILL file {KiCad 4.0.7} date 11/26/17 09:03:12
;FORMAT={2:4/ absolute / inch / suppress trailing zeros}
FMAT,2
INCH,LZ
T1C0.015
T2C0.039
%
G90
G05
M72
T1
X063Y-053425
X06425Y-04845
X064525Y-05045
X0646Y-0464
X064625Y-047025
X064975Y-048725
X065125Y-046275
X065275Y-04905
X0658Y-04745
X066025Y-04765
X06605Y-049375
X066875Y-048875
X0677Y-050175
X067925Y-051525
X068025Y-047475
X068075Y-047
X06815Y-048325
X06845Y-0458
X06875Y-05295
X069125Y-0448
X0693Y-0481
X070925Y-045275
T2
X060025Y-0423
X060025Y-0433
X060025Y-0443
X060025Y-0453
X06005Y-046775
X06005Y-047775
X06005Y-048775
X06005Y-049775
X061525Y-0423
X062525Y-0423
X063525Y-0423
X06415Y-055225
X064525Y-0423
X06515Y-055225
X066Y-0423
X06615Y-055225
X067Y-0423
X06715Y-055225
X0672Y-04965
X0672Y-05065
X068Y-0423
X0682Y-04965
X0682Y-05065
X069Y-0423
X0692Y-04965
X0692Y-05065
T0
M30
