G04 #@! TF.FileFunction,Soldermask,Top*
%FSLAX46Y46*%
G04 Gerber Fmt 4.6, Leading zero omitted, Abs format (unit mm)*
G04 Created by KiCad (PCBNEW 4.0.7) date 11/26/17 09:03:08*
%MOMM*%
%LPD*%
G01*
G04 APERTURE LIST*
%ADD10C,0.100000*%
%ADD11R,1.650000X1.400000*%
%ADD12R,1.150000X1.200000*%
%ADD13R,1.200000X1.150000*%
%ADD14R,2.100000X2.100000*%
%ADD15O,2.100000X2.100000*%
%ADD16R,2.100000X1.300000*%
%ADD17R,1.300000X2.100000*%
%ADD18R,2.000000X0.950000*%
%ADD19R,0.950000X2.000000*%
%ADD20R,2.400000X4.200000*%
%ADD21R,2.400000X1.900000*%
%ADD22R,1.200000X1.400000*%
%ADD23R,1.600000X1.800000*%
%ADD24R,1.300000X0.900000*%
%ADD25R,0.900000X1.300000*%
G04 APERTURE END LIST*
D10*
D11*
X159956500Y-134350000D03*
X159956500Y-132350000D03*
D12*
X157924500Y-132473000D03*
X157924500Y-133973000D03*
D13*
X177177000Y-139319000D03*
X178677000Y-139319000D03*
D12*
X160147000Y-130163000D03*
X160147000Y-128663000D03*
X158623000Y-130226500D03*
X158623000Y-128726500D03*
X157162500Y-130226500D03*
X157162500Y-128726500D03*
D13*
X157238000Y-119126000D03*
X158738000Y-119126000D03*
D14*
X175768000Y-126111000D03*
D15*
X175768000Y-128651000D03*
X173228000Y-126111000D03*
X173228000Y-128651000D03*
X170688000Y-126111000D03*
X170688000Y-128651000D03*
D14*
X170561000Y-140271500D03*
D15*
X168021000Y-140271500D03*
X165481000Y-140271500D03*
X162941000Y-140271500D03*
D14*
X152463500Y-107442000D03*
D15*
X152463500Y-109982000D03*
X152463500Y-112522000D03*
X152463500Y-115062000D03*
D14*
X152527000Y-118808500D03*
D15*
X152527000Y-121348500D03*
X152527000Y-123888500D03*
X152527000Y-126428500D03*
D14*
X167640000Y-107442000D03*
D15*
X170180000Y-107442000D03*
X172720000Y-107442000D03*
X175260000Y-107442000D03*
D14*
X156273500Y-107442000D03*
D15*
X158813500Y-107442000D03*
X161353500Y-107442000D03*
X163893500Y-107442000D03*
D16*
X166306500Y-129335000D03*
X166306500Y-125935000D03*
D17*
X179119000Y-111315500D03*
X175719000Y-111315500D03*
D18*
X162755000Y-115437000D03*
X162755000Y-116237000D03*
X162755000Y-117037000D03*
X162755000Y-117837000D03*
X162755000Y-118637000D03*
X162755000Y-119437000D03*
X162755000Y-120237000D03*
X162755000Y-121037000D03*
D19*
X164205000Y-122487000D03*
X165005000Y-122487000D03*
X165805000Y-122487000D03*
X166605000Y-122487000D03*
X167405000Y-122487000D03*
X168205000Y-122487000D03*
X169005000Y-122487000D03*
X169805000Y-122487000D03*
D18*
X171255000Y-121037000D03*
X171255000Y-120237000D03*
X171255000Y-119437000D03*
X171255000Y-118637000D03*
X171255000Y-117837000D03*
X171255000Y-117037000D03*
X171255000Y-116237000D03*
X171255000Y-115437000D03*
D19*
X169805000Y-113987000D03*
X169005000Y-113987000D03*
X168205000Y-113987000D03*
X167405000Y-113987000D03*
X166605000Y-113987000D03*
X165805000Y-113987000D03*
X165005000Y-113987000D03*
X164205000Y-113987000D03*
D20*
X168694500Y-134493000D03*
D21*
X162394500Y-134493000D03*
X162394500Y-136793000D03*
X162394500Y-132193000D03*
D20*
X177965500Y-134493000D03*
D21*
X171665500Y-134493000D03*
X171665500Y-136793000D03*
X171665500Y-132193000D03*
D22*
X175896500Y-120352500D03*
X175896500Y-122852500D03*
X174496500Y-122852500D03*
X174496500Y-120352500D03*
X179706500Y-120352500D03*
X179706500Y-122852500D03*
X178306500Y-122852500D03*
X178306500Y-120352500D03*
D23*
X157138000Y-120820000D03*
X157138000Y-123020000D03*
X158838000Y-123020000D03*
X158838000Y-120820000D03*
D24*
X163893500Y-127242000D03*
X163893500Y-125742000D03*
D13*
X158738000Y-124777500D03*
X157238000Y-124777500D03*
X174486000Y-117983000D03*
X172986000Y-117983000D03*
D25*
X179312000Y-114173000D03*
X177812000Y-114173000D03*
D13*
X177851500Y-117919500D03*
X176351500Y-117919500D03*
M02*
