G04 #@! TF.FileFunction,Copper,L2,Bot,Signal*
%FSLAX46Y46*%
G04 Gerber Fmt 4.6, Leading zero omitted, Abs format (unit mm)*
G04 Created by KiCad (PCBNEW 4.0.7) date 11/26/17 14:21:04*
%MOMM*%
%LPD*%
G01*
G04 APERTURE LIST*
%ADD10C,0.100000*%
%ADD11R,1.700000X1.700000*%
%ADD12O,1.700000X1.700000*%
%ADD13C,0.600000*%
%ADD14C,0.250000*%
%ADD15C,0.254000*%
G04 APERTURE END LIST*
D10*
D11*
X210312000Y-106680000D03*
D12*
X210312000Y-109220000D03*
X207772000Y-106680000D03*
X207772000Y-109220000D03*
X205232000Y-106680000D03*
X205232000Y-109220000D03*
D11*
X200025000Y-110363000D03*
D12*
X197485000Y-110363000D03*
X194945000Y-110363000D03*
X192405000Y-110363000D03*
X189865000Y-110363000D03*
X187325000Y-110363000D03*
X184785000Y-110363000D03*
X182245000Y-110363000D03*
D11*
X179514500Y-99123500D03*
D13*
X188658500Y-96964500D03*
X206184500Y-89535000D03*
X209105500Y-103441500D03*
X195770500Y-102616000D03*
X195643500Y-100965000D03*
X203327000Y-95948500D03*
X203390500Y-91630500D03*
X198247000Y-94361000D03*
X201612500Y-95631000D03*
X201485500Y-107124500D03*
X205867000Y-97599500D03*
X197802500Y-98933000D03*
X187198000Y-107696000D03*
X196977000Y-104140000D03*
X194056000Y-95377000D03*
X197167500Y-89281000D03*
X200425000Y-101009500D03*
X207581500Y-100330000D03*
X203962000Y-89789000D03*
X212852000Y-103251000D03*
X184023000Y-101727000D03*
X179514500Y-101854000D03*
D14*
X203390500Y-91630500D02*
X203327000Y-91694000D01*
X203327000Y-91694000D02*
X203327000Y-95948500D01*
X198945500Y-95059500D02*
X198247000Y-94361000D01*
X201041000Y-95059500D02*
X198945500Y-95059500D01*
X201612500Y-95631000D02*
X201041000Y-95059500D01*
X200025000Y-110363000D02*
X200025000Y-109410500D01*
X200025000Y-109410500D02*
X201485500Y-107124500D01*
X197802500Y-98933000D02*
X204533500Y-98933000D01*
X205867000Y-97599500D02*
X204533500Y-98933000D01*
X198310500Y-103949500D02*
X205232000Y-106680000D01*
X197802500Y-98933000D02*
X198310500Y-103949500D01*
X193421000Y-107696000D02*
X187198000Y-107696000D01*
X196977000Y-104140000D02*
X193421000Y-107696000D01*
X197167500Y-89281000D02*
X195516500Y-89281000D01*
X194056000Y-90741500D02*
X194056000Y-95377000D01*
X195516500Y-89281000D02*
X194056000Y-90741500D01*
X197167500Y-89281000D02*
X203454000Y-89281000D01*
X203454000Y-89281000D02*
X203962000Y-89789000D01*
X201104500Y-100330000D02*
X207581500Y-100330000D01*
X200425000Y-101009500D02*
X201104500Y-100330000D01*
X205232000Y-109220000D02*
X205232000Y-110299500D01*
X212852000Y-110490000D02*
X212852000Y-103251000D01*
X211709000Y-111633000D02*
X212852000Y-110490000D01*
X206565500Y-111633000D02*
X211709000Y-111633000D01*
X205232000Y-110299500D02*
X206565500Y-111633000D01*
X179641500Y-101727000D02*
X184023000Y-101727000D01*
X179514500Y-101854000D02*
X179641500Y-101727000D01*
D15*
G36*
X193518599Y-90204099D02*
X193353852Y-90450661D01*
X193296000Y-90741500D01*
X193296000Y-94814537D01*
X193263808Y-94846673D01*
X193121162Y-95190201D01*
X193120838Y-95562167D01*
X193262883Y-95905943D01*
X193525673Y-96169192D01*
X193869201Y-96311838D01*
X194241167Y-96312162D01*
X194584943Y-96170117D01*
X194848192Y-95907327D01*
X194990838Y-95563799D01*
X194991162Y-95191833D01*
X194849117Y-94848057D01*
X194816000Y-94814882D01*
X194816000Y-94546167D01*
X197311838Y-94546167D01*
X197453883Y-94889943D01*
X197716673Y-95153192D01*
X198060201Y-95295838D01*
X198107077Y-95295879D01*
X198408099Y-95596901D01*
X198654660Y-95761648D01*
X198945500Y-95819500D01*
X200678715Y-95819500D01*
X200819383Y-96159943D01*
X201082173Y-96423192D01*
X201425701Y-96565838D01*
X201797667Y-96566162D01*
X202141443Y-96424117D01*
X202403683Y-96162334D01*
X202533883Y-96477443D01*
X202796673Y-96740692D01*
X203140201Y-96883338D01*
X203512167Y-96883662D01*
X203855943Y-96741617D01*
X204119192Y-96478827D01*
X204261838Y-96135299D01*
X204262162Y-95763333D01*
X204120117Y-95419557D01*
X204087000Y-95386382D01*
X204087000Y-92256352D01*
X204182692Y-92160827D01*
X204325338Y-91817299D01*
X204325662Y-91445333D01*
X204183617Y-91101557D01*
X203920827Y-90838308D01*
X203577299Y-90695662D01*
X203205333Y-90695338D01*
X202861557Y-90837383D01*
X202598308Y-91100173D01*
X202455662Y-91443701D01*
X202455338Y-91815667D01*
X202567000Y-92085910D01*
X202567000Y-95386037D01*
X202535817Y-95417166D01*
X202405617Y-95102057D01*
X202142827Y-94838808D01*
X201799299Y-94696162D01*
X201752423Y-94696121D01*
X201578401Y-94522099D01*
X201331839Y-94357352D01*
X201041000Y-94299500D01*
X199260302Y-94299500D01*
X199182122Y-94221320D01*
X199182162Y-94175833D01*
X199040117Y-93832057D01*
X198777327Y-93568808D01*
X198433799Y-93426162D01*
X198061833Y-93425838D01*
X197718057Y-93567883D01*
X197454808Y-93830673D01*
X197312162Y-94174201D01*
X197311838Y-94546167D01*
X194816000Y-94546167D01*
X194816000Y-91056302D01*
X195831302Y-90041000D01*
X196605037Y-90041000D01*
X196637173Y-90073192D01*
X196980701Y-90215838D01*
X197352667Y-90216162D01*
X197696443Y-90074117D01*
X197729618Y-90041000D01*
X203054453Y-90041000D01*
X203168883Y-90317943D01*
X203431673Y-90581192D01*
X203775201Y-90723838D01*
X204147167Y-90724162D01*
X204490943Y-90582117D01*
X204754192Y-90319327D01*
X204896838Y-89975799D01*
X204897162Y-89603833D01*
X204755117Y-89260057D01*
X204660725Y-89165500D01*
X213412000Y-89165500D01*
X213412000Y-102488533D01*
X213382327Y-102458808D01*
X213038799Y-102316162D01*
X212666833Y-102315838D01*
X212323057Y-102457883D01*
X212059808Y-102720673D01*
X211917162Y-103064201D01*
X211916838Y-103436167D01*
X212058883Y-103779943D01*
X212092000Y-103813118D01*
X212092000Y-110175198D01*
X211394198Y-110873000D01*
X206880302Y-110873000D01*
X206291825Y-110284523D01*
X206502000Y-109969974D01*
X206721946Y-110299147D01*
X207203715Y-110621054D01*
X207772000Y-110734093D01*
X208340285Y-110621054D01*
X208822054Y-110299147D01*
X209049702Y-109958447D01*
X209116817Y-110101358D01*
X209545076Y-110491645D01*
X209955110Y-110661476D01*
X210185000Y-110540155D01*
X210185000Y-109347000D01*
X210439000Y-109347000D01*
X210439000Y-110540155D01*
X210668890Y-110661476D01*
X211078924Y-110491645D01*
X211507183Y-110101358D01*
X211753486Y-109576892D01*
X211632819Y-109347000D01*
X210439000Y-109347000D01*
X210185000Y-109347000D01*
X210165000Y-109347000D01*
X210165000Y-109093000D01*
X210185000Y-109093000D01*
X210185000Y-109073000D01*
X210439000Y-109073000D01*
X210439000Y-109093000D01*
X211632819Y-109093000D01*
X211753486Y-108863108D01*
X211507183Y-108338642D01*
X211301496Y-108151192D01*
X211397317Y-108133162D01*
X211613441Y-107994090D01*
X211758431Y-107781890D01*
X211809440Y-107530000D01*
X211809440Y-105830000D01*
X211765162Y-105594683D01*
X211626090Y-105378559D01*
X211413890Y-105233569D01*
X211162000Y-105182560D01*
X209462000Y-105182560D01*
X209226683Y-105226838D01*
X209010559Y-105365910D01*
X208865569Y-105578110D01*
X208851914Y-105645541D01*
X208822054Y-105600853D01*
X208340285Y-105278946D01*
X207772000Y-105165907D01*
X207203715Y-105278946D01*
X206721946Y-105600853D01*
X206502000Y-105930026D01*
X206282054Y-105600853D01*
X205800285Y-105278946D01*
X205232000Y-105165907D01*
X204663715Y-105278946D01*
X204325071Y-105505220D01*
X199019996Y-103412393D01*
X198643349Y-99693000D01*
X200716160Y-99693000D01*
X200567099Y-99792599D01*
X200285320Y-100074378D01*
X200239833Y-100074338D01*
X199896057Y-100216383D01*
X199632808Y-100479173D01*
X199490162Y-100822701D01*
X199489838Y-101194667D01*
X199631883Y-101538443D01*
X199894673Y-101801692D01*
X200238201Y-101944338D01*
X200610167Y-101944662D01*
X200953943Y-101802617D01*
X201217192Y-101539827D01*
X201359838Y-101196299D01*
X201359879Y-101149423D01*
X201419302Y-101090000D01*
X207019037Y-101090000D01*
X207051173Y-101122192D01*
X207394701Y-101264838D01*
X207766667Y-101265162D01*
X208110443Y-101123117D01*
X208373692Y-100860327D01*
X208516338Y-100516799D01*
X208516662Y-100144833D01*
X208374617Y-99801057D01*
X208111827Y-99537808D01*
X207768299Y-99395162D01*
X207396333Y-99394838D01*
X207052557Y-99536883D01*
X207019382Y-99570000D01*
X204921840Y-99570000D01*
X205070901Y-99470401D01*
X206006680Y-98534622D01*
X206052167Y-98534662D01*
X206395943Y-98392617D01*
X206659192Y-98129827D01*
X206801838Y-97786299D01*
X206802162Y-97414333D01*
X206660117Y-97070557D01*
X206397327Y-96807308D01*
X206053799Y-96664662D01*
X205681833Y-96664338D01*
X205338057Y-96806383D01*
X205074808Y-97069173D01*
X204932162Y-97412701D01*
X204932121Y-97459577D01*
X204218698Y-98173000D01*
X198364963Y-98173000D01*
X198332827Y-98140808D01*
X197989299Y-97998162D01*
X197617333Y-97997838D01*
X197273557Y-98139883D01*
X197010308Y-98402673D01*
X196867662Y-98746201D01*
X196867338Y-99118167D01*
X197009383Y-99461943D01*
X197101524Y-99554245D01*
X197484732Y-103338426D01*
X197163799Y-103205162D01*
X196791833Y-103204838D01*
X196448057Y-103346883D01*
X196184808Y-103609673D01*
X196042162Y-103953201D01*
X196042121Y-104000077D01*
X193106198Y-106936000D01*
X187760463Y-106936000D01*
X187728327Y-106903808D01*
X187384799Y-106761162D01*
X187012833Y-106760838D01*
X186669057Y-106902883D01*
X186405808Y-107165673D01*
X186263162Y-107509201D01*
X186262838Y-107881167D01*
X186404883Y-108224943D01*
X186667673Y-108488192D01*
X187011201Y-108630838D01*
X187383167Y-108631162D01*
X187726943Y-108489117D01*
X187760118Y-108456000D01*
X193421000Y-108456000D01*
X193711839Y-108398148D01*
X193958401Y-108233401D01*
X197116680Y-105075122D01*
X197162167Y-105075162D01*
X197505943Y-104933117D01*
X197769192Y-104670327D01*
X197826008Y-104533500D01*
X197829977Y-104538310D01*
X197933269Y-104593157D01*
X198031601Y-104656476D01*
X203790619Y-106928382D01*
X203860039Y-107277378D01*
X204181946Y-107759147D01*
X204467578Y-107950000D01*
X204181946Y-108140853D01*
X203860039Y-108622622D01*
X203747000Y-109190907D01*
X203747000Y-109249093D01*
X203860039Y-109817378D01*
X204181946Y-110299147D01*
X204516379Y-110522608D01*
X204529852Y-110590339D01*
X204694599Y-110836901D01*
X205669698Y-111812000D01*
X201116785Y-111812000D01*
X201326441Y-111677090D01*
X201471431Y-111464890D01*
X201522440Y-111213000D01*
X201522440Y-109513000D01*
X201478162Y-109277683D01*
X201339090Y-109061559D01*
X201207323Y-108971526D01*
X201832668Y-107992725D01*
X202014443Y-107917617D01*
X202277692Y-107654827D01*
X202420338Y-107311299D01*
X202420662Y-106939333D01*
X202278617Y-106595557D01*
X202015827Y-106332308D01*
X201672299Y-106189662D01*
X201300333Y-106189338D01*
X200956557Y-106331383D01*
X200693308Y-106594173D01*
X200550662Y-106937701D01*
X200550454Y-107176432D01*
X199471289Y-108865560D01*
X199175000Y-108865560D01*
X198939683Y-108909838D01*
X198723559Y-109048910D01*
X198578569Y-109261110D01*
X198564914Y-109328541D01*
X198535054Y-109283853D01*
X198053285Y-108961946D01*
X197485000Y-108848907D01*
X196916715Y-108961946D01*
X196434946Y-109283853D01*
X196215000Y-109613026D01*
X195995054Y-109283853D01*
X195513285Y-108961946D01*
X194945000Y-108848907D01*
X194376715Y-108961946D01*
X193894946Y-109283853D01*
X193675000Y-109613026D01*
X193455054Y-109283853D01*
X192973285Y-108961946D01*
X192405000Y-108848907D01*
X191836715Y-108961946D01*
X191354946Y-109283853D01*
X191127298Y-109624553D01*
X191060183Y-109481642D01*
X190631924Y-109091355D01*
X190221890Y-108921524D01*
X189992000Y-109042845D01*
X189992000Y-110236000D01*
X190012000Y-110236000D01*
X190012000Y-110490000D01*
X189992000Y-110490000D01*
X189992000Y-110510000D01*
X189738000Y-110510000D01*
X189738000Y-110490000D01*
X189718000Y-110490000D01*
X189718000Y-110236000D01*
X189738000Y-110236000D01*
X189738000Y-109042845D01*
X189508110Y-108921524D01*
X189098076Y-109091355D01*
X188669817Y-109481642D01*
X188602702Y-109624553D01*
X188375054Y-109283853D01*
X187893285Y-108961946D01*
X187325000Y-108848907D01*
X186756715Y-108961946D01*
X186274946Y-109283853D01*
X186055000Y-109613026D01*
X185835054Y-109283853D01*
X185353285Y-108961946D01*
X184785000Y-108848907D01*
X184216715Y-108961946D01*
X183734946Y-109283853D01*
X183515000Y-109613026D01*
X183295054Y-109283853D01*
X182813285Y-108961946D01*
X182245000Y-108848907D01*
X181676715Y-108961946D01*
X181194946Y-109283853D01*
X180873039Y-109765622D01*
X180760000Y-110333907D01*
X180760000Y-110392093D01*
X180873039Y-110960378D01*
X181194946Y-111442147D01*
X181676715Y-111764054D01*
X181917756Y-111812000D01*
X178129000Y-111812000D01*
X178129000Y-102039167D01*
X178579338Y-102039167D01*
X178721383Y-102382943D01*
X178984173Y-102646192D01*
X179327701Y-102788838D01*
X179699667Y-102789162D01*
X180043443Y-102647117D01*
X180203840Y-102487000D01*
X183460537Y-102487000D01*
X183492673Y-102519192D01*
X183836201Y-102661838D01*
X184208167Y-102662162D01*
X184551943Y-102520117D01*
X184815192Y-102257327D01*
X184957838Y-101913799D01*
X184958162Y-101541833D01*
X184816117Y-101198057D01*
X184553327Y-100934808D01*
X184209799Y-100792162D01*
X183837833Y-100791838D01*
X183494057Y-100933883D01*
X183460882Y-100967000D01*
X179816505Y-100967000D01*
X179701299Y-100919162D01*
X179329333Y-100918838D01*
X178985557Y-101060883D01*
X178722308Y-101323673D01*
X178579662Y-101667201D01*
X178579338Y-102039167D01*
X178129000Y-102039167D01*
X178129000Y-100313967D01*
X178200410Y-100424941D01*
X178412610Y-100569931D01*
X178664500Y-100620940D01*
X180364500Y-100620940D01*
X180599817Y-100576662D01*
X180815941Y-100437590D01*
X180960931Y-100225390D01*
X181011940Y-99973500D01*
X181011940Y-98273500D01*
X180967662Y-98038183D01*
X180828590Y-97822059D01*
X180616390Y-97677069D01*
X180364500Y-97626060D01*
X178664500Y-97626060D01*
X178429183Y-97670338D01*
X178213059Y-97809410D01*
X178129000Y-97932434D01*
X178129000Y-89165500D01*
X194557198Y-89165500D01*
X193518599Y-90204099D01*
X193518599Y-90204099D01*
G37*
X193518599Y-90204099D02*
X193353852Y-90450661D01*
X193296000Y-90741500D01*
X193296000Y-94814537D01*
X193263808Y-94846673D01*
X193121162Y-95190201D01*
X193120838Y-95562167D01*
X193262883Y-95905943D01*
X193525673Y-96169192D01*
X193869201Y-96311838D01*
X194241167Y-96312162D01*
X194584943Y-96170117D01*
X194848192Y-95907327D01*
X194990838Y-95563799D01*
X194991162Y-95191833D01*
X194849117Y-94848057D01*
X194816000Y-94814882D01*
X194816000Y-94546167D01*
X197311838Y-94546167D01*
X197453883Y-94889943D01*
X197716673Y-95153192D01*
X198060201Y-95295838D01*
X198107077Y-95295879D01*
X198408099Y-95596901D01*
X198654660Y-95761648D01*
X198945500Y-95819500D01*
X200678715Y-95819500D01*
X200819383Y-96159943D01*
X201082173Y-96423192D01*
X201425701Y-96565838D01*
X201797667Y-96566162D01*
X202141443Y-96424117D01*
X202403683Y-96162334D01*
X202533883Y-96477443D01*
X202796673Y-96740692D01*
X203140201Y-96883338D01*
X203512167Y-96883662D01*
X203855943Y-96741617D01*
X204119192Y-96478827D01*
X204261838Y-96135299D01*
X204262162Y-95763333D01*
X204120117Y-95419557D01*
X204087000Y-95386382D01*
X204087000Y-92256352D01*
X204182692Y-92160827D01*
X204325338Y-91817299D01*
X204325662Y-91445333D01*
X204183617Y-91101557D01*
X203920827Y-90838308D01*
X203577299Y-90695662D01*
X203205333Y-90695338D01*
X202861557Y-90837383D01*
X202598308Y-91100173D01*
X202455662Y-91443701D01*
X202455338Y-91815667D01*
X202567000Y-92085910D01*
X202567000Y-95386037D01*
X202535817Y-95417166D01*
X202405617Y-95102057D01*
X202142827Y-94838808D01*
X201799299Y-94696162D01*
X201752423Y-94696121D01*
X201578401Y-94522099D01*
X201331839Y-94357352D01*
X201041000Y-94299500D01*
X199260302Y-94299500D01*
X199182122Y-94221320D01*
X199182162Y-94175833D01*
X199040117Y-93832057D01*
X198777327Y-93568808D01*
X198433799Y-93426162D01*
X198061833Y-93425838D01*
X197718057Y-93567883D01*
X197454808Y-93830673D01*
X197312162Y-94174201D01*
X197311838Y-94546167D01*
X194816000Y-94546167D01*
X194816000Y-91056302D01*
X195831302Y-90041000D01*
X196605037Y-90041000D01*
X196637173Y-90073192D01*
X196980701Y-90215838D01*
X197352667Y-90216162D01*
X197696443Y-90074117D01*
X197729618Y-90041000D01*
X203054453Y-90041000D01*
X203168883Y-90317943D01*
X203431673Y-90581192D01*
X203775201Y-90723838D01*
X204147167Y-90724162D01*
X204490943Y-90582117D01*
X204754192Y-90319327D01*
X204896838Y-89975799D01*
X204897162Y-89603833D01*
X204755117Y-89260057D01*
X204660725Y-89165500D01*
X213412000Y-89165500D01*
X213412000Y-102488533D01*
X213382327Y-102458808D01*
X213038799Y-102316162D01*
X212666833Y-102315838D01*
X212323057Y-102457883D01*
X212059808Y-102720673D01*
X211917162Y-103064201D01*
X211916838Y-103436167D01*
X212058883Y-103779943D01*
X212092000Y-103813118D01*
X212092000Y-110175198D01*
X211394198Y-110873000D01*
X206880302Y-110873000D01*
X206291825Y-110284523D01*
X206502000Y-109969974D01*
X206721946Y-110299147D01*
X207203715Y-110621054D01*
X207772000Y-110734093D01*
X208340285Y-110621054D01*
X208822054Y-110299147D01*
X209049702Y-109958447D01*
X209116817Y-110101358D01*
X209545076Y-110491645D01*
X209955110Y-110661476D01*
X210185000Y-110540155D01*
X210185000Y-109347000D01*
X210439000Y-109347000D01*
X210439000Y-110540155D01*
X210668890Y-110661476D01*
X211078924Y-110491645D01*
X211507183Y-110101358D01*
X211753486Y-109576892D01*
X211632819Y-109347000D01*
X210439000Y-109347000D01*
X210185000Y-109347000D01*
X210165000Y-109347000D01*
X210165000Y-109093000D01*
X210185000Y-109093000D01*
X210185000Y-109073000D01*
X210439000Y-109073000D01*
X210439000Y-109093000D01*
X211632819Y-109093000D01*
X211753486Y-108863108D01*
X211507183Y-108338642D01*
X211301496Y-108151192D01*
X211397317Y-108133162D01*
X211613441Y-107994090D01*
X211758431Y-107781890D01*
X211809440Y-107530000D01*
X211809440Y-105830000D01*
X211765162Y-105594683D01*
X211626090Y-105378559D01*
X211413890Y-105233569D01*
X211162000Y-105182560D01*
X209462000Y-105182560D01*
X209226683Y-105226838D01*
X209010559Y-105365910D01*
X208865569Y-105578110D01*
X208851914Y-105645541D01*
X208822054Y-105600853D01*
X208340285Y-105278946D01*
X207772000Y-105165907D01*
X207203715Y-105278946D01*
X206721946Y-105600853D01*
X206502000Y-105930026D01*
X206282054Y-105600853D01*
X205800285Y-105278946D01*
X205232000Y-105165907D01*
X204663715Y-105278946D01*
X204325071Y-105505220D01*
X199019996Y-103412393D01*
X198643349Y-99693000D01*
X200716160Y-99693000D01*
X200567099Y-99792599D01*
X200285320Y-100074378D01*
X200239833Y-100074338D01*
X199896057Y-100216383D01*
X199632808Y-100479173D01*
X199490162Y-100822701D01*
X199489838Y-101194667D01*
X199631883Y-101538443D01*
X199894673Y-101801692D01*
X200238201Y-101944338D01*
X200610167Y-101944662D01*
X200953943Y-101802617D01*
X201217192Y-101539827D01*
X201359838Y-101196299D01*
X201359879Y-101149423D01*
X201419302Y-101090000D01*
X207019037Y-101090000D01*
X207051173Y-101122192D01*
X207394701Y-101264838D01*
X207766667Y-101265162D01*
X208110443Y-101123117D01*
X208373692Y-100860327D01*
X208516338Y-100516799D01*
X208516662Y-100144833D01*
X208374617Y-99801057D01*
X208111827Y-99537808D01*
X207768299Y-99395162D01*
X207396333Y-99394838D01*
X207052557Y-99536883D01*
X207019382Y-99570000D01*
X204921840Y-99570000D01*
X205070901Y-99470401D01*
X206006680Y-98534622D01*
X206052167Y-98534662D01*
X206395943Y-98392617D01*
X206659192Y-98129827D01*
X206801838Y-97786299D01*
X206802162Y-97414333D01*
X206660117Y-97070557D01*
X206397327Y-96807308D01*
X206053799Y-96664662D01*
X205681833Y-96664338D01*
X205338057Y-96806383D01*
X205074808Y-97069173D01*
X204932162Y-97412701D01*
X204932121Y-97459577D01*
X204218698Y-98173000D01*
X198364963Y-98173000D01*
X198332827Y-98140808D01*
X197989299Y-97998162D01*
X197617333Y-97997838D01*
X197273557Y-98139883D01*
X197010308Y-98402673D01*
X196867662Y-98746201D01*
X196867338Y-99118167D01*
X197009383Y-99461943D01*
X197101524Y-99554245D01*
X197484732Y-103338426D01*
X197163799Y-103205162D01*
X196791833Y-103204838D01*
X196448057Y-103346883D01*
X196184808Y-103609673D01*
X196042162Y-103953201D01*
X196042121Y-104000077D01*
X193106198Y-106936000D01*
X187760463Y-106936000D01*
X187728327Y-106903808D01*
X187384799Y-106761162D01*
X187012833Y-106760838D01*
X186669057Y-106902883D01*
X186405808Y-107165673D01*
X186263162Y-107509201D01*
X186262838Y-107881167D01*
X186404883Y-108224943D01*
X186667673Y-108488192D01*
X187011201Y-108630838D01*
X187383167Y-108631162D01*
X187726943Y-108489117D01*
X187760118Y-108456000D01*
X193421000Y-108456000D01*
X193711839Y-108398148D01*
X193958401Y-108233401D01*
X197116680Y-105075122D01*
X197162167Y-105075162D01*
X197505943Y-104933117D01*
X197769192Y-104670327D01*
X197826008Y-104533500D01*
X197829977Y-104538310D01*
X197933269Y-104593157D01*
X198031601Y-104656476D01*
X203790619Y-106928382D01*
X203860039Y-107277378D01*
X204181946Y-107759147D01*
X204467578Y-107950000D01*
X204181946Y-108140853D01*
X203860039Y-108622622D01*
X203747000Y-109190907D01*
X203747000Y-109249093D01*
X203860039Y-109817378D01*
X204181946Y-110299147D01*
X204516379Y-110522608D01*
X204529852Y-110590339D01*
X204694599Y-110836901D01*
X205669698Y-111812000D01*
X201116785Y-111812000D01*
X201326441Y-111677090D01*
X201471431Y-111464890D01*
X201522440Y-111213000D01*
X201522440Y-109513000D01*
X201478162Y-109277683D01*
X201339090Y-109061559D01*
X201207323Y-108971526D01*
X201832668Y-107992725D01*
X202014443Y-107917617D01*
X202277692Y-107654827D01*
X202420338Y-107311299D01*
X202420662Y-106939333D01*
X202278617Y-106595557D01*
X202015827Y-106332308D01*
X201672299Y-106189662D01*
X201300333Y-106189338D01*
X200956557Y-106331383D01*
X200693308Y-106594173D01*
X200550662Y-106937701D01*
X200550454Y-107176432D01*
X199471289Y-108865560D01*
X199175000Y-108865560D01*
X198939683Y-108909838D01*
X198723559Y-109048910D01*
X198578569Y-109261110D01*
X198564914Y-109328541D01*
X198535054Y-109283853D01*
X198053285Y-108961946D01*
X197485000Y-108848907D01*
X196916715Y-108961946D01*
X196434946Y-109283853D01*
X196215000Y-109613026D01*
X195995054Y-109283853D01*
X195513285Y-108961946D01*
X194945000Y-108848907D01*
X194376715Y-108961946D01*
X193894946Y-109283853D01*
X193675000Y-109613026D01*
X193455054Y-109283853D01*
X192973285Y-108961946D01*
X192405000Y-108848907D01*
X191836715Y-108961946D01*
X191354946Y-109283853D01*
X191127298Y-109624553D01*
X191060183Y-109481642D01*
X190631924Y-109091355D01*
X190221890Y-108921524D01*
X189992000Y-109042845D01*
X189992000Y-110236000D01*
X190012000Y-110236000D01*
X190012000Y-110490000D01*
X189992000Y-110490000D01*
X189992000Y-110510000D01*
X189738000Y-110510000D01*
X189738000Y-110490000D01*
X189718000Y-110490000D01*
X189718000Y-110236000D01*
X189738000Y-110236000D01*
X189738000Y-109042845D01*
X189508110Y-108921524D01*
X189098076Y-109091355D01*
X188669817Y-109481642D01*
X188602702Y-109624553D01*
X188375054Y-109283853D01*
X187893285Y-108961946D01*
X187325000Y-108848907D01*
X186756715Y-108961946D01*
X186274946Y-109283853D01*
X186055000Y-109613026D01*
X185835054Y-109283853D01*
X185353285Y-108961946D01*
X184785000Y-108848907D01*
X184216715Y-108961946D01*
X183734946Y-109283853D01*
X183515000Y-109613026D01*
X183295054Y-109283853D01*
X182813285Y-108961946D01*
X182245000Y-108848907D01*
X181676715Y-108961946D01*
X181194946Y-109283853D01*
X180873039Y-109765622D01*
X180760000Y-110333907D01*
X180760000Y-110392093D01*
X180873039Y-110960378D01*
X181194946Y-111442147D01*
X181676715Y-111764054D01*
X181917756Y-111812000D01*
X178129000Y-111812000D01*
X178129000Y-102039167D01*
X178579338Y-102039167D01*
X178721383Y-102382943D01*
X178984173Y-102646192D01*
X179327701Y-102788838D01*
X179699667Y-102789162D01*
X180043443Y-102647117D01*
X180203840Y-102487000D01*
X183460537Y-102487000D01*
X183492673Y-102519192D01*
X183836201Y-102661838D01*
X184208167Y-102662162D01*
X184551943Y-102520117D01*
X184815192Y-102257327D01*
X184957838Y-101913799D01*
X184958162Y-101541833D01*
X184816117Y-101198057D01*
X184553327Y-100934808D01*
X184209799Y-100792162D01*
X183837833Y-100791838D01*
X183494057Y-100933883D01*
X183460882Y-100967000D01*
X179816505Y-100967000D01*
X179701299Y-100919162D01*
X179329333Y-100918838D01*
X178985557Y-101060883D01*
X178722308Y-101323673D01*
X178579662Y-101667201D01*
X178579338Y-102039167D01*
X178129000Y-102039167D01*
X178129000Y-100313967D01*
X178200410Y-100424941D01*
X178412610Y-100569931D01*
X178664500Y-100620940D01*
X180364500Y-100620940D01*
X180599817Y-100576662D01*
X180815941Y-100437590D01*
X180960931Y-100225390D01*
X181011940Y-99973500D01*
X181011940Y-98273500D01*
X180967662Y-98038183D01*
X180828590Y-97822059D01*
X180616390Y-97677069D01*
X180364500Y-97626060D01*
X178664500Y-97626060D01*
X178429183Y-97670338D01*
X178213059Y-97809410D01*
X178129000Y-97932434D01*
X178129000Y-89165500D01*
X194557198Y-89165500D01*
X193518599Y-90204099D01*
M02*
