M48
;DRILL file {KiCad 4.0.7} date 11/26/17 14:21:16
;FORMAT={2:4/ absolute / inch / suppress trailing zeros}
FMAT,2
INCH,LZ
T1C0.016
T2C0.039
%
G90
G05
M72
T1
X070675Y-0401
X07245Y-04005
X0737Y-0424
X074275Y-038175
X0764Y-03755
X077025Y-03975
X077075Y-0404
X07755Y-041
X077625Y-03515
X077875Y-03895
X07805Y-03715
X078907Y-039768
X079325Y-042175
X079375Y-03765
X08005Y-037775
X080075Y-036075
X0803Y-03535
X08105Y-038425
X081175Y-03525
X081725Y-0395
X082325Y-040725
X0838Y-04065
T2
X070675Y-039025
X07175Y-04345
X07275Y-04345
X07375Y-04345
X07475Y-04345
X07575Y-04345
X07675Y-04345
X07775Y-04345
X07875Y-04345
X0808Y-042
X0808Y-043
X0818Y-042
X0818Y-043
X0828Y-042
X0828Y-043
T0
M30
