G04 #@! TF.FileFunction,Copper,L1,Top,Signal*
%FSLAX46Y46*%
G04 Gerber Fmt 4.6, Leading zero omitted, Abs format (unit mm)*
G04 Created by KiCad (PCBNEW 4.0.7) date 11/26/17 14:21:04*
%MOMM*%
%LPD*%
G01*
G04 APERTURE LIST*
%ADD10C,0.100000*%
%ADD11R,1.250000X1.000000*%
%ADD12R,0.750000X0.800000*%
%ADD13R,0.800000X0.750000*%
%ADD14R,1.700000X1.700000*%
%ADD15O,1.700000X1.700000*%
%ADD16R,0.500000X0.900000*%
%ADD17R,0.900000X0.500000*%
%ADD18R,1.700000X0.900000*%
%ADD19R,1.600000X0.550000*%
%ADD20R,0.550000X1.600000*%
%ADD21R,2.000000X3.800000*%
%ADD22R,2.000000X1.500000*%
%ADD23O,0.300000X0.750000*%
%ADD24O,0.750000X0.300000*%
%ADD25R,0.900000X0.900000*%
%ADD26R,1.400000X1.200000*%
%ADD27C,0.600000*%
%ADD28C,0.250000*%
%ADD29C,0.254000*%
G04 APERTURE END LIST*
D10*
D11*
X186944000Y-97044000D03*
X186944000Y-99044000D03*
D12*
X184785000Y-98476500D03*
X184785000Y-96976500D03*
X196405500Y-90309000D03*
X196405500Y-91809000D03*
X204470000Y-101866000D03*
X204470000Y-103366000D03*
X206057500Y-101866000D03*
X206057500Y-103366000D03*
X207708500Y-101866000D03*
X207708500Y-103366000D03*
D13*
X190170500Y-100393500D03*
X188670500Y-100393500D03*
X190107000Y-105981500D03*
X188607000Y-105981500D03*
X203402500Y-92964000D03*
X204902500Y-92964000D03*
X203402500Y-94234000D03*
X204902500Y-94234000D03*
D12*
X196913500Y-93420500D03*
X196913500Y-94920500D03*
D13*
X200775000Y-89471500D03*
X199275000Y-89471500D03*
X206045500Y-100203000D03*
X204545500Y-100203000D03*
D14*
X210312000Y-106680000D03*
D15*
X210312000Y-109220000D03*
X207772000Y-106680000D03*
X207772000Y-109220000D03*
X205232000Y-106680000D03*
X205232000Y-109220000D03*
D14*
X200025000Y-110363000D03*
D15*
X197485000Y-110363000D03*
X194945000Y-110363000D03*
X192405000Y-110363000D03*
X189865000Y-110363000D03*
X187325000Y-110363000D03*
X184785000Y-110363000D03*
X182245000Y-110363000D03*
D14*
X179514500Y-99123500D03*
D16*
X207276000Y-89535000D03*
X208776000Y-89535000D03*
D17*
X182245000Y-104279000D03*
X182245000Y-105779000D03*
D18*
X208407000Y-94600500D03*
X208407000Y-91200500D03*
X179514500Y-103329000D03*
X179514500Y-106729000D03*
D19*
X193933500Y-98609500D03*
X193933500Y-99409500D03*
X193933500Y-100209500D03*
X193933500Y-101009500D03*
X193933500Y-101809500D03*
X193933500Y-102609500D03*
X193933500Y-103409500D03*
X193933500Y-104209500D03*
D20*
X195383500Y-105659500D03*
X196183500Y-105659500D03*
X196983500Y-105659500D03*
X197783500Y-105659500D03*
X198583500Y-105659500D03*
X199383500Y-105659500D03*
X200183500Y-105659500D03*
X200983500Y-105659500D03*
D19*
X202433500Y-104209500D03*
X202433500Y-103409500D03*
X202433500Y-102609500D03*
X202433500Y-101809500D03*
X202433500Y-101009500D03*
X202433500Y-100209500D03*
X202433500Y-99409500D03*
X202433500Y-98609500D03*
D20*
X200983500Y-97159500D03*
X200183500Y-97159500D03*
X199383500Y-97159500D03*
X198583500Y-97159500D03*
X197783500Y-97159500D03*
X196983500Y-97159500D03*
X196183500Y-97159500D03*
X195383500Y-97159500D03*
D21*
X185331500Y-92456000D03*
D22*
X179031500Y-92456000D03*
X179031500Y-94756000D03*
X179031500Y-90156000D03*
D21*
X194348500Y-92456000D03*
D22*
X188048500Y-92456000D03*
X188048500Y-94756000D03*
X188048500Y-90156000D03*
D23*
X199211500Y-94185000D03*
X199711500Y-94185000D03*
X200211500Y-94185000D03*
X200711500Y-94185000D03*
D24*
X201436500Y-93460000D03*
X201436500Y-92960000D03*
X201436500Y-92460000D03*
X201436500Y-91960000D03*
D23*
X200711500Y-91235000D03*
X200211500Y-91235000D03*
X199711500Y-91235000D03*
X199211500Y-91235000D03*
D24*
X198486500Y-91960000D03*
X198486500Y-92460000D03*
X198486500Y-92960000D03*
X198486500Y-93460000D03*
D25*
X200411500Y-92260000D03*
X199511500Y-92260000D03*
X200411500Y-93160000D03*
X199511500Y-93160000D03*
D26*
X191219000Y-102083500D03*
X189019000Y-102083500D03*
X189019000Y-103783500D03*
X191219000Y-103783500D03*
D27*
X188658500Y-96964500D03*
X206184500Y-89535000D03*
X209105500Y-103441500D03*
X195770500Y-102616000D03*
X195643500Y-100965000D03*
X203327000Y-95948500D03*
X203390500Y-91630500D03*
X198247000Y-94361000D03*
X201612500Y-95631000D03*
X201485500Y-107124500D03*
X205867000Y-97599500D03*
X197802500Y-98933000D03*
X187198000Y-107696000D03*
X196977000Y-104140000D03*
X194056000Y-95377000D03*
X197167500Y-89281000D03*
X200425000Y-101009500D03*
X207581500Y-100330000D03*
X203962000Y-89789000D03*
X212852000Y-103251000D03*
X184023000Y-101727000D03*
X179514500Y-101854000D03*
D28*
X206057500Y-103366000D02*
X207708500Y-103366000D01*
X186944000Y-97044000D02*
X188579000Y-97044000D01*
X188579000Y-97044000D02*
X188658500Y-96964500D01*
X207276000Y-89535000D02*
X206184500Y-89535000D01*
X207708500Y-103366000D02*
X209030000Y-103366000D01*
X209030000Y-103366000D02*
X209105500Y-103441500D01*
X193933500Y-102609500D02*
X195764000Y-102609500D01*
X195764000Y-102609500D02*
X195770500Y-102616000D01*
X193933500Y-101009500D02*
X195599000Y-101009500D01*
X195599000Y-101009500D02*
X195643500Y-100965000D01*
X182245000Y-104279000D02*
X182245000Y-98361500D01*
X183630000Y-96976500D02*
X184785000Y-96976500D01*
X182245000Y-98361500D02*
X183630000Y-96976500D01*
X188048500Y-94756000D02*
X187184000Y-94756000D01*
X202433500Y-103409500D02*
X204426500Y-103409500D01*
X204426500Y-103409500D02*
X204470000Y-103366000D01*
X204470000Y-103366000D02*
X207708500Y-103366000D01*
X188048500Y-94756000D02*
X188048500Y-95939500D01*
X188048500Y-95939500D02*
X186944000Y-97044000D01*
X185331500Y-92456000D02*
X185331500Y-96430000D01*
X185331500Y-96430000D02*
X184785000Y-96976500D01*
X184785000Y-96976500D02*
X186876500Y-96976500D01*
X186876500Y-96976500D02*
X186944000Y-97044000D01*
X186876500Y-96976500D02*
X186944000Y-97044000D01*
X188048500Y-94756000D02*
X186640500Y-94756000D01*
X186640500Y-94756000D02*
X185331500Y-93447000D01*
X185331500Y-93447000D02*
X185331500Y-92456000D01*
X179031500Y-92456000D02*
X185331500Y-92456000D01*
X196405500Y-91872500D02*
X197409500Y-91872500D01*
X197409500Y-91872500D02*
X197485000Y-91948000D01*
X196405500Y-91872500D02*
X194932000Y-91872500D01*
X194932000Y-91872500D02*
X194348500Y-92456000D01*
X198486500Y-92960000D02*
X198486500Y-92460000D01*
X198486500Y-92460000D02*
X197997000Y-92460000D01*
X197997000Y-92460000D02*
X197485000Y-91948000D01*
X197485000Y-91948000D02*
X197485000Y-90932000D01*
X197485000Y-90932000D02*
X198945500Y-89471500D01*
X198945500Y-89471500D02*
X199275000Y-89471500D01*
X194348500Y-92456000D02*
X195060000Y-92456000D01*
X188048500Y-92456000D02*
X194348500Y-92456000D01*
X191219000Y-102083500D02*
X191219000Y-101442000D01*
X191219000Y-101442000D02*
X190170500Y-100393500D01*
X191219000Y-102083500D02*
X191745500Y-102083500D01*
X191745500Y-102083500D02*
X192532000Y-102870000D01*
X192532000Y-102870000D02*
X192532000Y-103314500D01*
X192532000Y-103314500D02*
X192627000Y-103409500D01*
X192627000Y-103409500D02*
X193933500Y-103409500D01*
X193933500Y-104209500D02*
X193796000Y-104209500D01*
X193796000Y-104209500D02*
X192024000Y-105981500D01*
X192024000Y-105981500D02*
X190107000Y-105981500D01*
X189019000Y-103783500D02*
X189019000Y-104310000D01*
X189019000Y-104310000D02*
X190107000Y-105398000D01*
X190107000Y-105398000D02*
X190107000Y-105981500D01*
X203402500Y-91642500D02*
X203390500Y-91630500D01*
X203402500Y-92964000D02*
X203402500Y-91642500D01*
X203612500Y-99409500D02*
X202433500Y-99409500D01*
X204279500Y-98742500D02*
X203612500Y-99409500D01*
X204279500Y-96901000D02*
X204279500Y-98742500D01*
X203327000Y-95948500D02*
X204279500Y-96901000D01*
X201436500Y-93460000D02*
X202906500Y-93460000D01*
X202906500Y-93460000D02*
X203402500Y-92964000D01*
X202565000Y-98609500D02*
X202565000Y-95071500D01*
X202565000Y-95071500D02*
X203402500Y-94234000D01*
X203402500Y-94234000D02*
X200760500Y-94234000D01*
X200760500Y-94234000D02*
X200711500Y-94185000D01*
X200983500Y-97159500D02*
X200983500Y-96260000D01*
X197929500Y-94017000D02*
X198486500Y-93460000D01*
X197929500Y-94043500D02*
X197929500Y-94017000D01*
X198247000Y-94361000D02*
X197929500Y-94043500D01*
X200983500Y-96260000D02*
X201612500Y-95631000D01*
X198486500Y-93460000D02*
X196953000Y-93460000D01*
X196953000Y-93460000D02*
X196913500Y-93420500D01*
X202433500Y-101809500D02*
X203181000Y-101809500D01*
X203181000Y-101809500D02*
X204545500Y-100445000D01*
X204545500Y-100445000D02*
X204545500Y-100203000D01*
X210312000Y-106680000D02*
X211264500Y-106680000D01*
X201295000Y-111633000D02*
X200025000Y-110363000D01*
X211645500Y-111633000D02*
X201295000Y-111633000D01*
X212788500Y-110490000D02*
X211645500Y-111633000D01*
X212788500Y-108204000D02*
X212788500Y-110490000D01*
X211264500Y-106680000D02*
X212788500Y-108204000D01*
X201485500Y-107124500D02*
X200983500Y-106305000D01*
X200983500Y-106305000D02*
X200983500Y-105659500D01*
X207772000Y-106680000D02*
X207772000Y-105981500D01*
X207772000Y-105981500D02*
X206692500Y-104902000D01*
X206692500Y-104902000D02*
X203126000Y-104902000D01*
X203126000Y-104902000D02*
X202433500Y-104209500D01*
X197485000Y-110363000D02*
X197485000Y-110045000D01*
X197485000Y-110045000D02*
X200183500Y-107346500D01*
X201739500Y-108902500D02*
X201739500Y-108966000D01*
X201739500Y-108966000D02*
X201739500Y-108902500D01*
X207772000Y-109220000D02*
X207772000Y-109664500D01*
X207772000Y-109664500D02*
X206502000Y-110998000D01*
X206502000Y-110998000D02*
X203835000Y-110998000D01*
X203835000Y-110998000D02*
X201739500Y-108902500D01*
X201739500Y-108902500D02*
X200183500Y-107346500D01*
X200183500Y-107346500D02*
X200183500Y-105659500D01*
X205867000Y-97599500D02*
X206184500Y-97282000D01*
X206184500Y-92710000D02*
X207694000Y-91200500D01*
X206184500Y-97282000D02*
X206184500Y-92710000D01*
X207694000Y-91200500D02*
X208407000Y-91200500D01*
X197783500Y-97159500D02*
X197783500Y-98914000D01*
X197783500Y-98914000D02*
X197802500Y-98933000D01*
X207962500Y-91200500D02*
X208075000Y-91200500D01*
X208075000Y-91200500D02*
X208776000Y-90499500D01*
X208776000Y-90499500D02*
X208776000Y-89535000D01*
X194945000Y-110363000D02*
X195135500Y-110363000D01*
X195135500Y-110363000D02*
X197104000Y-108394500D01*
X197104000Y-108394500D02*
X198310500Y-108394500D01*
X198310500Y-108394500D02*
X199383500Y-107321500D01*
X199383500Y-107321500D02*
X199383500Y-105659500D01*
X192405000Y-110363000D02*
X194818000Y-107950000D01*
X198583500Y-107042000D02*
X198583500Y-105659500D01*
X197866000Y-107759500D02*
X198583500Y-107042000D01*
X195008500Y-107759500D02*
X197866000Y-107759500D01*
X194818000Y-107950000D02*
X195008500Y-107759500D01*
X187325000Y-110363000D02*
X187706000Y-110363000D01*
X187706000Y-110363000D02*
X190817500Y-107251500D01*
X190817500Y-107251500D02*
X197548500Y-107251500D01*
X197548500Y-107251500D02*
X197783500Y-107016500D01*
X197783500Y-107016500D02*
X197783500Y-105659500D01*
X182245000Y-105779000D02*
X180464500Y-105779000D01*
X180464500Y-105779000D02*
X179514500Y-106729000D01*
X196983500Y-105659500D02*
X196983500Y-104146500D01*
X186231000Y-106729000D02*
X179514500Y-106729000D01*
X187198000Y-107696000D02*
X186231000Y-106729000D01*
X196983500Y-104146500D02*
X196977000Y-104140000D01*
X200709000Y-91055000D02*
X200709000Y-90555000D01*
X196405500Y-90043000D02*
X197167500Y-89281000D01*
X196405500Y-90372500D02*
X196405500Y-90043000D01*
X202433500Y-101009500D02*
X200425000Y-101009500D01*
X193933500Y-101809500D02*
X199625000Y-101809500D01*
X199625000Y-101809500D02*
X200425000Y-101009500D01*
X193933500Y-101809500D02*
X192932000Y-101809500D01*
X192932000Y-101809500D02*
X192532000Y-101409500D01*
X192532000Y-101409500D02*
X192532000Y-100457000D01*
X192532000Y-100457000D02*
X192405000Y-100330000D01*
X200775000Y-89471500D02*
X203644500Y-89471500D01*
X203644500Y-89471500D02*
X203962000Y-89789000D01*
X188048500Y-90156000D02*
X187565000Y-90156000D01*
X187565000Y-90156000D02*
X186880500Y-89471500D01*
X186880500Y-89471500D02*
X186055000Y-89471500D01*
X188048500Y-90156000D02*
X187247500Y-90156000D01*
X187247500Y-90156000D02*
X186563000Y-89471500D01*
X179514500Y-103329000D02*
X179514500Y-101854000D01*
X193933500Y-100209500D02*
X192525500Y-100209500D01*
X192525500Y-100209500D02*
X192405000Y-100330000D01*
X192532000Y-101409500D02*
X192532000Y-101028500D01*
X192932000Y-101809500D02*
X192532000Y-101409500D01*
X199711500Y-94185000D02*
X199711500Y-94865000D01*
X197624000Y-95631000D02*
X196913500Y-94920500D01*
X198945500Y-95631000D02*
X197624000Y-95631000D01*
X199711500Y-94865000D02*
X198945500Y-95631000D01*
X188048500Y-90156000D02*
X187184000Y-90156000D01*
X189019000Y-102083500D02*
X189019000Y-102024000D01*
X189019000Y-102024000D02*
X188670500Y-101675500D01*
X188670500Y-101675500D02*
X188670500Y-100393500D01*
X191219000Y-103783500D02*
X190969000Y-103783500D01*
X190969000Y-103783500D02*
X189269000Y-102083500D01*
X189269000Y-102083500D02*
X189019000Y-102083500D01*
X201436500Y-92960000D02*
X201436500Y-92460000D01*
X201436500Y-92460000D02*
X202243500Y-92460000D01*
X201930000Y-89471500D02*
X200775000Y-89471500D01*
X202565000Y-90106500D02*
X201930000Y-89471500D01*
X202565000Y-92138500D02*
X202565000Y-90106500D01*
X202243500Y-92460000D02*
X202565000Y-92138500D01*
X204914500Y-94222000D02*
X204902500Y-94234000D01*
X179514500Y-99123500D02*
X179514500Y-95239000D01*
X179514500Y-95239000D02*
X179031500Y-94756000D01*
D29*
G36*
X192701060Y-94356000D02*
X192745338Y-94591317D01*
X192884410Y-94807441D01*
X193096610Y-94952431D01*
X193348500Y-95003440D01*
X195348500Y-95003440D01*
X195583817Y-94959162D01*
X195799941Y-94820090D01*
X195917210Y-94648460D01*
X196062250Y-94793500D01*
X196786500Y-94793500D01*
X196786500Y-94773500D01*
X197040500Y-94773500D01*
X197040500Y-94793500D01*
X197060500Y-94793500D01*
X197060500Y-95047500D01*
X197040500Y-95047500D01*
X197040500Y-95067500D01*
X196786500Y-95067500D01*
X196786500Y-95047500D01*
X196062250Y-95047500D01*
X195903500Y-95206250D01*
X195903500Y-95446809D01*
X196000173Y-95680198D01*
X196032035Y-95712060D01*
X195908500Y-95712060D01*
X195778911Y-95736444D01*
X195658500Y-95712060D01*
X195108500Y-95712060D01*
X194873183Y-95756338D01*
X194657059Y-95895410D01*
X194512069Y-96107610D01*
X194461060Y-96359500D01*
X194461060Y-97687060D01*
X193133500Y-97687060D01*
X192898183Y-97731338D01*
X192682059Y-97870410D01*
X192537069Y-98082610D01*
X192486060Y-98334500D01*
X192486060Y-98884500D01*
X192510444Y-99014089D01*
X192486060Y-99134500D01*
X192486060Y-99684500D01*
X192505950Y-99790205D01*
X192498500Y-99808190D01*
X192498500Y-99923750D01*
X192594901Y-100020151D01*
X192669410Y-100135941D01*
X192776897Y-100209384D01*
X192682059Y-100270410D01*
X192593005Y-100400745D01*
X192498500Y-100495250D01*
X192498500Y-100610810D01*
X192506968Y-100631253D01*
X192486060Y-100734500D01*
X192486060Y-101192079D01*
X192383090Y-101032059D01*
X192170890Y-100887069D01*
X191919000Y-100836060D01*
X191687862Y-100836060D01*
X191217940Y-100366138D01*
X191217940Y-100018500D01*
X191173662Y-99783183D01*
X191034590Y-99567059D01*
X190822390Y-99422069D01*
X190570500Y-99371060D01*
X189770500Y-99371060D01*
X189535183Y-99415338D01*
X189431854Y-99481829D01*
X189430198Y-99480173D01*
X189196809Y-99383500D01*
X188956250Y-99383500D01*
X188797500Y-99542250D01*
X188797500Y-100266500D01*
X188817500Y-100266500D01*
X188817500Y-100520500D01*
X188797500Y-100520500D01*
X188797500Y-100540500D01*
X188543500Y-100540500D01*
X188543500Y-100520500D01*
X187794250Y-100520500D01*
X187635500Y-100679250D01*
X187635500Y-100894810D01*
X187732173Y-101128199D01*
X187765180Y-101161205D01*
X187684000Y-101357190D01*
X187684000Y-101797750D01*
X187842750Y-101956500D01*
X188892000Y-101956500D01*
X188892000Y-101936500D01*
X189146000Y-101936500D01*
X189146000Y-101956500D01*
X189166000Y-101956500D01*
X189166000Y-102210500D01*
X189146000Y-102210500D01*
X189146000Y-102230500D01*
X188892000Y-102230500D01*
X188892000Y-102210500D01*
X187842750Y-102210500D01*
X187684000Y-102369250D01*
X187684000Y-102809810D01*
X187729967Y-102920783D01*
X187722569Y-102931610D01*
X187671560Y-103183500D01*
X187671560Y-104383500D01*
X187715838Y-104618817D01*
X187854910Y-104834941D01*
X188064554Y-104978184D01*
X187847302Y-105068173D01*
X187668673Y-105246801D01*
X187572000Y-105480190D01*
X187572000Y-105695750D01*
X187730750Y-105854500D01*
X188480000Y-105854500D01*
X188480000Y-105834500D01*
X188734000Y-105834500D01*
X188734000Y-105854500D01*
X188754000Y-105854500D01*
X188754000Y-106108500D01*
X188734000Y-106108500D01*
X188734000Y-106832750D01*
X188892750Y-106991500D01*
X189133309Y-106991500D01*
X189366698Y-106894827D01*
X189368068Y-106893457D01*
X189455110Y-106952931D01*
X189707000Y-107003940D01*
X189990257Y-107003940D01*
X187976590Y-109017608D01*
X187893285Y-108961946D01*
X187325000Y-108848907D01*
X186756715Y-108961946D01*
X186274946Y-109283853D01*
X186047298Y-109624553D01*
X185980183Y-109481642D01*
X185551924Y-109091355D01*
X185141890Y-108921524D01*
X184912000Y-109042845D01*
X184912000Y-110236000D01*
X184932000Y-110236000D01*
X184932000Y-110490000D01*
X184912000Y-110490000D01*
X184912000Y-110510000D01*
X184658000Y-110510000D01*
X184658000Y-110490000D01*
X184638000Y-110490000D01*
X184638000Y-110236000D01*
X184658000Y-110236000D01*
X184658000Y-109042845D01*
X184428110Y-108921524D01*
X184018076Y-109091355D01*
X183589817Y-109481642D01*
X183522702Y-109624553D01*
X183295054Y-109283853D01*
X182813285Y-108961946D01*
X182245000Y-108848907D01*
X181676715Y-108961946D01*
X181194946Y-109283853D01*
X180873039Y-109765622D01*
X180760000Y-110333907D01*
X180760000Y-110392093D01*
X180873039Y-110960378D01*
X181194946Y-111442147D01*
X181676715Y-111764054D01*
X181917756Y-111812000D01*
X178129000Y-111812000D01*
X178129000Y-107519467D01*
X178200410Y-107630441D01*
X178412610Y-107775431D01*
X178664500Y-107826440D01*
X180364500Y-107826440D01*
X180599817Y-107782162D01*
X180815941Y-107643090D01*
X180921226Y-107489000D01*
X185916198Y-107489000D01*
X186262878Y-107835680D01*
X186262838Y-107881167D01*
X186404883Y-108224943D01*
X186667673Y-108488192D01*
X187011201Y-108630838D01*
X187383167Y-108631162D01*
X187726943Y-108489117D01*
X187990192Y-108226327D01*
X188132838Y-107882799D01*
X188133162Y-107510833D01*
X187991117Y-107167057D01*
X187728327Y-106903808D01*
X187384799Y-106761162D01*
X187337923Y-106761121D01*
X186844052Y-106267250D01*
X187572000Y-106267250D01*
X187572000Y-106482810D01*
X187668673Y-106716199D01*
X187847302Y-106894827D01*
X188080691Y-106991500D01*
X188321250Y-106991500D01*
X188480000Y-106832750D01*
X188480000Y-106108500D01*
X187730750Y-106108500D01*
X187572000Y-106267250D01*
X186844052Y-106267250D01*
X186768401Y-106191599D01*
X186521839Y-106026852D01*
X186231000Y-105969000D01*
X183342440Y-105969000D01*
X183342440Y-105529000D01*
X183298162Y-105293683D01*
X183159090Y-105077559D01*
X183089289Y-105029866D01*
X183146441Y-104993090D01*
X183291431Y-104780890D01*
X183342440Y-104529000D01*
X183342440Y-104029000D01*
X183298162Y-103793683D01*
X183159090Y-103577559D01*
X183005000Y-103472274D01*
X183005000Y-98762250D01*
X183775000Y-98762250D01*
X183775000Y-99002809D01*
X183871673Y-99236198D01*
X184050301Y-99414827D01*
X184283690Y-99511500D01*
X184499250Y-99511500D01*
X184658000Y-99352750D01*
X184658000Y-98603500D01*
X183933750Y-98603500D01*
X183775000Y-98762250D01*
X183005000Y-98762250D01*
X183005000Y-98676302D01*
X183806034Y-97875268D01*
X183775000Y-97950191D01*
X183775000Y-98190750D01*
X183933750Y-98349500D01*
X184658000Y-98349500D01*
X184658000Y-98329500D01*
X184912000Y-98329500D01*
X184912000Y-98349500D01*
X184932000Y-98349500D01*
X184932000Y-98603500D01*
X184912000Y-98603500D01*
X184912000Y-99352750D01*
X185070750Y-99511500D01*
X185286310Y-99511500D01*
X185519699Y-99414827D01*
X185698327Y-99236198D01*
X185725332Y-99171002D01*
X185842748Y-99171002D01*
X185684000Y-99329750D01*
X185684000Y-99670309D01*
X185780673Y-99903698D01*
X185959301Y-100082327D01*
X186192690Y-100179000D01*
X186658250Y-100179000D01*
X186817000Y-100020250D01*
X186817000Y-99171000D01*
X187071000Y-99171000D01*
X187071000Y-100020250D01*
X187229750Y-100179000D01*
X187695310Y-100179000D01*
X187703399Y-100175649D01*
X187794250Y-100266500D01*
X188543500Y-100266500D01*
X188543500Y-99542250D01*
X188384750Y-99383500D01*
X188204000Y-99383500D01*
X188204000Y-99329750D01*
X188045250Y-99171000D01*
X187071000Y-99171000D01*
X186817000Y-99171000D01*
X186797000Y-99171000D01*
X186797000Y-98917000D01*
X186817000Y-98917000D01*
X186817000Y-98897000D01*
X187071000Y-98897000D01*
X187071000Y-98917000D01*
X188045250Y-98917000D01*
X188204000Y-98758250D01*
X188204000Y-98417691D01*
X188107327Y-98184302D01*
X187966090Y-98043064D01*
X188020441Y-98008090D01*
X188159890Y-97804000D01*
X188242103Y-97804000D01*
X188471701Y-97899338D01*
X188843667Y-97899662D01*
X189187443Y-97757617D01*
X189450692Y-97494827D01*
X189593338Y-97151299D01*
X189593662Y-96779333D01*
X189451617Y-96435557D01*
X189188827Y-96172308D01*
X189113798Y-96141153D01*
X189283817Y-96109162D01*
X189499941Y-95970090D01*
X189644931Y-95757890D01*
X189695940Y-95506000D01*
X189695940Y-94006000D01*
X189651662Y-93770683D01*
X189544741Y-93604523D01*
X189644931Y-93457890D01*
X189693915Y-93216000D01*
X192701060Y-93216000D01*
X192701060Y-94356000D01*
X192701060Y-94356000D01*
G37*
X192701060Y-94356000D02*
X192745338Y-94591317D01*
X192884410Y-94807441D01*
X193096610Y-94952431D01*
X193348500Y-95003440D01*
X195348500Y-95003440D01*
X195583817Y-94959162D01*
X195799941Y-94820090D01*
X195917210Y-94648460D01*
X196062250Y-94793500D01*
X196786500Y-94793500D01*
X196786500Y-94773500D01*
X197040500Y-94773500D01*
X197040500Y-94793500D01*
X197060500Y-94793500D01*
X197060500Y-95047500D01*
X197040500Y-95047500D01*
X197040500Y-95067500D01*
X196786500Y-95067500D01*
X196786500Y-95047500D01*
X196062250Y-95047500D01*
X195903500Y-95206250D01*
X195903500Y-95446809D01*
X196000173Y-95680198D01*
X196032035Y-95712060D01*
X195908500Y-95712060D01*
X195778911Y-95736444D01*
X195658500Y-95712060D01*
X195108500Y-95712060D01*
X194873183Y-95756338D01*
X194657059Y-95895410D01*
X194512069Y-96107610D01*
X194461060Y-96359500D01*
X194461060Y-97687060D01*
X193133500Y-97687060D01*
X192898183Y-97731338D01*
X192682059Y-97870410D01*
X192537069Y-98082610D01*
X192486060Y-98334500D01*
X192486060Y-98884500D01*
X192510444Y-99014089D01*
X192486060Y-99134500D01*
X192486060Y-99684500D01*
X192505950Y-99790205D01*
X192498500Y-99808190D01*
X192498500Y-99923750D01*
X192594901Y-100020151D01*
X192669410Y-100135941D01*
X192776897Y-100209384D01*
X192682059Y-100270410D01*
X192593005Y-100400745D01*
X192498500Y-100495250D01*
X192498500Y-100610810D01*
X192506968Y-100631253D01*
X192486060Y-100734500D01*
X192486060Y-101192079D01*
X192383090Y-101032059D01*
X192170890Y-100887069D01*
X191919000Y-100836060D01*
X191687862Y-100836060D01*
X191217940Y-100366138D01*
X191217940Y-100018500D01*
X191173662Y-99783183D01*
X191034590Y-99567059D01*
X190822390Y-99422069D01*
X190570500Y-99371060D01*
X189770500Y-99371060D01*
X189535183Y-99415338D01*
X189431854Y-99481829D01*
X189430198Y-99480173D01*
X189196809Y-99383500D01*
X188956250Y-99383500D01*
X188797500Y-99542250D01*
X188797500Y-100266500D01*
X188817500Y-100266500D01*
X188817500Y-100520500D01*
X188797500Y-100520500D01*
X188797500Y-100540500D01*
X188543500Y-100540500D01*
X188543500Y-100520500D01*
X187794250Y-100520500D01*
X187635500Y-100679250D01*
X187635500Y-100894810D01*
X187732173Y-101128199D01*
X187765180Y-101161205D01*
X187684000Y-101357190D01*
X187684000Y-101797750D01*
X187842750Y-101956500D01*
X188892000Y-101956500D01*
X188892000Y-101936500D01*
X189146000Y-101936500D01*
X189146000Y-101956500D01*
X189166000Y-101956500D01*
X189166000Y-102210500D01*
X189146000Y-102210500D01*
X189146000Y-102230500D01*
X188892000Y-102230500D01*
X188892000Y-102210500D01*
X187842750Y-102210500D01*
X187684000Y-102369250D01*
X187684000Y-102809810D01*
X187729967Y-102920783D01*
X187722569Y-102931610D01*
X187671560Y-103183500D01*
X187671560Y-104383500D01*
X187715838Y-104618817D01*
X187854910Y-104834941D01*
X188064554Y-104978184D01*
X187847302Y-105068173D01*
X187668673Y-105246801D01*
X187572000Y-105480190D01*
X187572000Y-105695750D01*
X187730750Y-105854500D01*
X188480000Y-105854500D01*
X188480000Y-105834500D01*
X188734000Y-105834500D01*
X188734000Y-105854500D01*
X188754000Y-105854500D01*
X188754000Y-106108500D01*
X188734000Y-106108500D01*
X188734000Y-106832750D01*
X188892750Y-106991500D01*
X189133309Y-106991500D01*
X189366698Y-106894827D01*
X189368068Y-106893457D01*
X189455110Y-106952931D01*
X189707000Y-107003940D01*
X189990257Y-107003940D01*
X187976590Y-109017608D01*
X187893285Y-108961946D01*
X187325000Y-108848907D01*
X186756715Y-108961946D01*
X186274946Y-109283853D01*
X186047298Y-109624553D01*
X185980183Y-109481642D01*
X185551924Y-109091355D01*
X185141890Y-108921524D01*
X184912000Y-109042845D01*
X184912000Y-110236000D01*
X184932000Y-110236000D01*
X184932000Y-110490000D01*
X184912000Y-110490000D01*
X184912000Y-110510000D01*
X184658000Y-110510000D01*
X184658000Y-110490000D01*
X184638000Y-110490000D01*
X184638000Y-110236000D01*
X184658000Y-110236000D01*
X184658000Y-109042845D01*
X184428110Y-108921524D01*
X184018076Y-109091355D01*
X183589817Y-109481642D01*
X183522702Y-109624553D01*
X183295054Y-109283853D01*
X182813285Y-108961946D01*
X182245000Y-108848907D01*
X181676715Y-108961946D01*
X181194946Y-109283853D01*
X180873039Y-109765622D01*
X180760000Y-110333907D01*
X180760000Y-110392093D01*
X180873039Y-110960378D01*
X181194946Y-111442147D01*
X181676715Y-111764054D01*
X181917756Y-111812000D01*
X178129000Y-111812000D01*
X178129000Y-107519467D01*
X178200410Y-107630441D01*
X178412610Y-107775431D01*
X178664500Y-107826440D01*
X180364500Y-107826440D01*
X180599817Y-107782162D01*
X180815941Y-107643090D01*
X180921226Y-107489000D01*
X185916198Y-107489000D01*
X186262878Y-107835680D01*
X186262838Y-107881167D01*
X186404883Y-108224943D01*
X186667673Y-108488192D01*
X187011201Y-108630838D01*
X187383167Y-108631162D01*
X187726943Y-108489117D01*
X187990192Y-108226327D01*
X188132838Y-107882799D01*
X188133162Y-107510833D01*
X187991117Y-107167057D01*
X187728327Y-106903808D01*
X187384799Y-106761162D01*
X187337923Y-106761121D01*
X186844052Y-106267250D01*
X187572000Y-106267250D01*
X187572000Y-106482810D01*
X187668673Y-106716199D01*
X187847302Y-106894827D01*
X188080691Y-106991500D01*
X188321250Y-106991500D01*
X188480000Y-106832750D01*
X188480000Y-106108500D01*
X187730750Y-106108500D01*
X187572000Y-106267250D01*
X186844052Y-106267250D01*
X186768401Y-106191599D01*
X186521839Y-106026852D01*
X186231000Y-105969000D01*
X183342440Y-105969000D01*
X183342440Y-105529000D01*
X183298162Y-105293683D01*
X183159090Y-105077559D01*
X183089289Y-105029866D01*
X183146441Y-104993090D01*
X183291431Y-104780890D01*
X183342440Y-104529000D01*
X183342440Y-104029000D01*
X183298162Y-103793683D01*
X183159090Y-103577559D01*
X183005000Y-103472274D01*
X183005000Y-98762250D01*
X183775000Y-98762250D01*
X183775000Y-99002809D01*
X183871673Y-99236198D01*
X184050301Y-99414827D01*
X184283690Y-99511500D01*
X184499250Y-99511500D01*
X184658000Y-99352750D01*
X184658000Y-98603500D01*
X183933750Y-98603500D01*
X183775000Y-98762250D01*
X183005000Y-98762250D01*
X183005000Y-98676302D01*
X183806034Y-97875268D01*
X183775000Y-97950191D01*
X183775000Y-98190750D01*
X183933750Y-98349500D01*
X184658000Y-98349500D01*
X184658000Y-98329500D01*
X184912000Y-98329500D01*
X184912000Y-98349500D01*
X184932000Y-98349500D01*
X184932000Y-98603500D01*
X184912000Y-98603500D01*
X184912000Y-99352750D01*
X185070750Y-99511500D01*
X185286310Y-99511500D01*
X185519699Y-99414827D01*
X185698327Y-99236198D01*
X185725332Y-99171002D01*
X185842748Y-99171002D01*
X185684000Y-99329750D01*
X185684000Y-99670309D01*
X185780673Y-99903698D01*
X185959301Y-100082327D01*
X186192690Y-100179000D01*
X186658250Y-100179000D01*
X186817000Y-100020250D01*
X186817000Y-99171000D01*
X187071000Y-99171000D01*
X187071000Y-100020250D01*
X187229750Y-100179000D01*
X187695310Y-100179000D01*
X187703399Y-100175649D01*
X187794250Y-100266500D01*
X188543500Y-100266500D01*
X188543500Y-99542250D01*
X188384750Y-99383500D01*
X188204000Y-99383500D01*
X188204000Y-99329750D01*
X188045250Y-99171000D01*
X187071000Y-99171000D01*
X186817000Y-99171000D01*
X186797000Y-99171000D01*
X186797000Y-98917000D01*
X186817000Y-98917000D01*
X186817000Y-98897000D01*
X187071000Y-98897000D01*
X187071000Y-98917000D01*
X188045250Y-98917000D01*
X188204000Y-98758250D01*
X188204000Y-98417691D01*
X188107327Y-98184302D01*
X187966090Y-98043064D01*
X188020441Y-98008090D01*
X188159890Y-97804000D01*
X188242103Y-97804000D01*
X188471701Y-97899338D01*
X188843667Y-97899662D01*
X189187443Y-97757617D01*
X189450692Y-97494827D01*
X189593338Y-97151299D01*
X189593662Y-96779333D01*
X189451617Y-96435557D01*
X189188827Y-96172308D01*
X189113798Y-96141153D01*
X189283817Y-96109162D01*
X189499941Y-95970090D01*
X189644931Y-95757890D01*
X189695940Y-95506000D01*
X189695940Y-94006000D01*
X189651662Y-93770683D01*
X189544741Y-93604523D01*
X189644931Y-93457890D01*
X189693915Y-93216000D01*
X192701060Y-93216000D01*
X192701060Y-94356000D01*
G36*
X202588599Y-105439401D02*
X202835161Y-105604148D01*
X203126000Y-105662000D01*
X204141089Y-105662000D01*
X203860039Y-106082622D01*
X203747000Y-106650907D01*
X203747000Y-106709093D01*
X203860039Y-107277378D01*
X204181946Y-107759147D01*
X204465101Y-107948345D01*
X204465076Y-107948355D01*
X204036817Y-108338642D01*
X203790514Y-108863108D01*
X203911181Y-109093000D01*
X205105000Y-109093000D01*
X205105000Y-109073000D01*
X205359000Y-109073000D01*
X205359000Y-109093000D01*
X205379000Y-109093000D01*
X205379000Y-109347000D01*
X205359000Y-109347000D01*
X205359000Y-109367000D01*
X205105000Y-109367000D01*
X205105000Y-109347000D01*
X203911181Y-109347000D01*
X203790514Y-109576892D01*
X204036817Y-110101358D01*
X204186753Y-110238000D01*
X204149802Y-110238000D01*
X201883517Y-107971715D01*
X202014443Y-107917617D01*
X202277692Y-107654827D01*
X202420338Y-107311299D01*
X202420662Y-106939333D01*
X202278617Y-106595557D01*
X202015827Y-106332308D01*
X201905940Y-106286679D01*
X201905940Y-105131940D01*
X202281138Y-105131940D01*
X202588599Y-105439401D01*
X202588599Y-105439401D01*
G37*
X202588599Y-105439401D02*
X202835161Y-105604148D01*
X203126000Y-105662000D01*
X204141089Y-105662000D01*
X203860039Y-106082622D01*
X203747000Y-106650907D01*
X203747000Y-106709093D01*
X203860039Y-107277378D01*
X204181946Y-107759147D01*
X204465101Y-107948345D01*
X204465076Y-107948355D01*
X204036817Y-108338642D01*
X203790514Y-108863108D01*
X203911181Y-109093000D01*
X205105000Y-109093000D01*
X205105000Y-109073000D01*
X205359000Y-109073000D01*
X205359000Y-109093000D01*
X205379000Y-109093000D01*
X205379000Y-109347000D01*
X205359000Y-109347000D01*
X205359000Y-109367000D01*
X205105000Y-109367000D01*
X205105000Y-109347000D01*
X203911181Y-109347000D01*
X203790514Y-109576892D01*
X204036817Y-110101358D01*
X204186753Y-110238000D01*
X204149802Y-110238000D01*
X201883517Y-107971715D01*
X202014443Y-107917617D01*
X202277692Y-107654827D01*
X202420338Y-107311299D01*
X202420662Y-106939333D01*
X202278617Y-106595557D01*
X202015827Y-106332308D01*
X201905940Y-106286679D01*
X201905940Y-105131940D01*
X202281138Y-105131940D01*
X202588599Y-105439401D01*
G36*
X213412000Y-107795455D02*
X213325901Y-107666599D01*
X211809440Y-106150138D01*
X211809440Y-105830000D01*
X211765162Y-105594683D01*
X211626090Y-105378559D01*
X211413890Y-105233569D01*
X211162000Y-105182560D01*
X209462000Y-105182560D01*
X209226683Y-105226838D01*
X209010559Y-105365910D01*
X208865569Y-105578110D01*
X208851914Y-105645541D01*
X208822054Y-105600853D01*
X208340285Y-105278946D01*
X208095571Y-105230269D01*
X207264837Y-104399535D01*
X207333500Y-104413440D01*
X208083500Y-104413440D01*
X208318817Y-104369162D01*
X208534941Y-104230090D01*
X208549828Y-104208302D01*
X208575173Y-104233692D01*
X208918701Y-104376338D01*
X209290667Y-104376662D01*
X209634443Y-104234617D01*
X209897692Y-103971827D01*
X210040338Y-103628299D01*
X210040662Y-103256333D01*
X209898617Y-102912557D01*
X209635827Y-102649308D01*
X209292299Y-102506662D01*
X208920333Y-102506338D01*
X208679132Y-102606000D01*
X208629986Y-102606000D01*
X208718500Y-102392309D01*
X208718500Y-102151750D01*
X208559750Y-101993000D01*
X207835500Y-101993000D01*
X207835500Y-102013000D01*
X207581500Y-102013000D01*
X207581500Y-101993000D01*
X206184500Y-101993000D01*
X206184500Y-102013000D01*
X205930500Y-102013000D01*
X205930500Y-101993000D01*
X204597000Y-101993000D01*
X204597000Y-102013000D01*
X204343000Y-102013000D01*
X204343000Y-101993000D01*
X204323000Y-101993000D01*
X204323000Y-101742302D01*
X204326302Y-101739000D01*
X204343000Y-101739000D01*
X204343000Y-101722302D01*
X204346302Y-101719000D01*
X204597000Y-101719000D01*
X204597000Y-101739000D01*
X205930500Y-101739000D01*
X205930500Y-100989750D01*
X205918500Y-100977750D01*
X205918500Y-100330000D01*
X206172500Y-100330000D01*
X206172500Y-101054250D01*
X206184500Y-101066250D01*
X206184500Y-101739000D01*
X207581500Y-101739000D01*
X207581500Y-100989750D01*
X207835500Y-100989750D01*
X207835500Y-101739000D01*
X208559750Y-101739000D01*
X208718500Y-101580250D01*
X208718500Y-101339691D01*
X208621827Y-101106302D01*
X208443199Y-100927673D01*
X208209810Y-100831000D01*
X207994250Y-100831000D01*
X207835500Y-100989750D01*
X207581500Y-100989750D01*
X207422750Y-100831000D01*
X207207190Y-100831000D01*
X206990916Y-100920584D01*
X207080500Y-100704310D01*
X207080500Y-100488750D01*
X206921750Y-100330000D01*
X206172500Y-100330000D01*
X205918500Y-100330000D01*
X205898500Y-100330000D01*
X205898500Y-100076000D01*
X205918500Y-100076000D01*
X205918500Y-99351750D01*
X206172500Y-99351750D01*
X206172500Y-100076000D01*
X206921750Y-100076000D01*
X207080500Y-99917250D01*
X207080500Y-99701690D01*
X206983827Y-99468301D01*
X206805198Y-99289673D01*
X206571809Y-99193000D01*
X206331250Y-99193000D01*
X206172500Y-99351750D01*
X205918500Y-99351750D01*
X205759750Y-99193000D01*
X205519191Y-99193000D01*
X205285802Y-99289673D01*
X205284432Y-99291043D01*
X205197390Y-99231569D01*
X204945500Y-99180560D01*
X204883279Y-99180560D01*
X204981648Y-99033340D01*
X205005386Y-98914000D01*
X205039500Y-98742500D01*
X205039500Y-98045230D01*
X205073883Y-98128443D01*
X205336673Y-98391692D01*
X205680201Y-98534338D01*
X206052167Y-98534662D01*
X206395943Y-98392617D01*
X206659192Y-98129827D01*
X206801838Y-97786299D01*
X206801913Y-97699654D01*
X206886648Y-97572839D01*
X206944500Y-97282000D01*
X206944500Y-95231129D01*
X207018673Y-95410198D01*
X207197301Y-95588827D01*
X207430690Y-95685500D01*
X208121250Y-95685500D01*
X208280000Y-95526750D01*
X208280000Y-94727500D01*
X208534000Y-94727500D01*
X208534000Y-95526750D01*
X208692750Y-95685500D01*
X209383310Y-95685500D01*
X209616699Y-95588827D01*
X209795327Y-95410198D01*
X209892000Y-95176809D01*
X209892000Y-94886250D01*
X209733250Y-94727500D01*
X208534000Y-94727500D01*
X208280000Y-94727500D01*
X208260000Y-94727500D01*
X208260000Y-94473500D01*
X208280000Y-94473500D01*
X208280000Y-93674250D01*
X208534000Y-93674250D01*
X208534000Y-94473500D01*
X209733250Y-94473500D01*
X209892000Y-94314750D01*
X209892000Y-94024191D01*
X209795327Y-93790802D01*
X209616699Y-93612173D01*
X209383310Y-93515500D01*
X208692750Y-93515500D01*
X208534000Y-93674250D01*
X208280000Y-93674250D01*
X208121250Y-93515500D01*
X207430690Y-93515500D01*
X207197301Y-93612173D01*
X207018673Y-93790802D01*
X206944500Y-93969871D01*
X206944500Y-93024802D01*
X207671362Y-92297940D01*
X209257000Y-92297940D01*
X209492317Y-92253662D01*
X209708441Y-92114590D01*
X209853431Y-91902390D01*
X209904440Y-91650500D01*
X209904440Y-90750500D01*
X209860162Y-90515183D01*
X209721090Y-90299059D01*
X209623363Y-90232285D01*
X209673440Y-89985000D01*
X209673440Y-89165500D01*
X213412000Y-89165500D01*
X213412000Y-107795455D01*
X213412000Y-107795455D01*
G37*
X213412000Y-107795455D02*
X213325901Y-107666599D01*
X211809440Y-106150138D01*
X211809440Y-105830000D01*
X211765162Y-105594683D01*
X211626090Y-105378559D01*
X211413890Y-105233569D01*
X211162000Y-105182560D01*
X209462000Y-105182560D01*
X209226683Y-105226838D01*
X209010559Y-105365910D01*
X208865569Y-105578110D01*
X208851914Y-105645541D01*
X208822054Y-105600853D01*
X208340285Y-105278946D01*
X208095571Y-105230269D01*
X207264837Y-104399535D01*
X207333500Y-104413440D01*
X208083500Y-104413440D01*
X208318817Y-104369162D01*
X208534941Y-104230090D01*
X208549828Y-104208302D01*
X208575173Y-104233692D01*
X208918701Y-104376338D01*
X209290667Y-104376662D01*
X209634443Y-104234617D01*
X209897692Y-103971827D01*
X210040338Y-103628299D01*
X210040662Y-103256333D01*
X209898617Y-102912557D01*
X209635827Y-102649308D01*
X209292299Y-102506662D01*
X208920333Y-102506338D01*
X208679132Y-102606000D01*
X208629986Y-102606000D01*
X208718500Y-102392309D01*
X208718500Y-102151750D01*
X208559750Y-101993000D01*
X207835500Y-101993000D01*
X207835500Y-102013000D01*
X207581500Y-102013000D01*
X207581500Y-101993000D01*
X206184500Y-101993000D01*
X206184500Y-102013000D01*
X205930500Y-102013000D01*
X205930500Y-101993000D01*
X204597000Y-101993000D01*
X204597000Y-102013000D01*
X204343000Y-102013000D01*
X204343000Y-101993000D01*
X204323000Y-101993000D01*
X204323000Y-101742302D01*
X204326302Y-101739000D01*
X204343000Y-101739000D01*
X204343000Y-101722302D01*
X204346302Y-101719000D01*
X204597000Y-101719000D01*
X204597000Y-101739000D01*
X205930500Y-101739000D01*
X205930500Y-100989750D01*
X205918500Y-100977750D01*
X205918500Y-100330000D01*
X206172500Y-100330000D01*
X206172500Y-101054250D01*
X206184500Y-101066250D01*
X206184500Y-101739000D01*
X207581500Y-101739000D01*
X207581500Y-100989750D01*
X207835500Y-100989750D01*
X207835500Y-101739000D01*
X208559750Y-101739000D01*
X208718500Y-101580250D01*
X208718500Y-101339691D01*
X208621827Y-101106302D01*
X208443199Y-100927673D01*
X208209810Y-100831000D01*
X207994250Y-100831000D01*
X207835500Y-100989750D01*
X207581500Y-100989750D01*
X207422750Y-100831000D01*
X207207190Y-100831000D01*
X206990916Y-100920584D01*
X207080500Y-100704310D01*
X207080500Y-100488750D01*
X206921750Y-100330000D01*
X206172500Y-100330000D01*
X205918500Y-100330000D01*
X205898500Y-100330000D01*
X205898500Y-100076000D01*
X205918500Y-100076000D01*
X205918500Y-99351750D01*
X206172500Y-99351750D01*
X206172500Y-100076000D01*
X206921750Y-100076000D01*
X207080500Y-99917250D01*
X207080500Y-99701690D01*
X206983827Y-99468301D01*
X206805198Y-99289673D01*
X206571809Y-99193000D01*
X206331250Y-99193000D01*
X206172500Y-99351750D01*
X205918500Y-99351750D01*
X205759750Y-99193000D01*
X205519191Y-99193000D01*
X205285802Y-99289673D01*
X205284432Y-99291043D01*
X205197390Y-99231569D01*
X204945500Y-99180560D01*
X204883279Y-99180560D01*
X204981648Y-99033340D01*
X205005386Y-98914000D01*
X205039500Y-98742500D01*
X205039500Y-98045230D01*
X205073883Y-98128443D01*
X205336673Y-98391692D01*
X205680201Y-98534338D01*
X206052167Y-98534662D01*
X206395943Y-98392617D01*
X206659192Y-98129827D01*
X206801838Y-97786299D01*
X206801913Y-97699654D01*
X206886648Y-97572839D01*
X206944500Y-97282000D01*
X206944500Y-95231129D01*
X207018673Y-95410198D01*
X207197301Y-95588827D01*
X207430690Y-95685500D01*
X208121250Y-95685500D01*
X208280000Y-95526750D01*
X208280000Y-94727500D01*
X208534000Y-94727500D01*
X208534000Y-95526750D01*
X208692750Y-95685500D01*
X209383310Y-95685500D01*
X209616699Y-95588827D01*
X209795327Y-95410198D01*
X209892000Y-95176809D01*
X209892000Y-94886250D01*
X209733250Y-94727500D01*
X208534000Y-94727500D01*
X208280000Y-94727500D01*
X208260000Y-94727500D01*
X208260000Y-94473500D01*
X208280000Y-94473500D01*
X208280000Y-93674250D01*
X208534000Y-93674250D01*
X208534000Y-94473500D01*
X209733250Y-94473500D01*
X209892000Y-94314750D01*
X209892000Y-94024191D01*
X209795327Y-93790802D01*
X209616699Y-93612173D01*
X209383310Y-93515500D01*
X208692750Y-93515500D01*
X208534000Y-93674250D01*
X208280000Y-93674250D01*
X208121250Y-93515500D01*
X207430690Y-93515500D01*
X207197301Y-93612173D01*
X207018673Y-93790802D01*
X206944500Y-93969871D01*
X206944500Y-93024802D01*
X207671362Y-92297940D01*
X209257000Y-92297940D01*
X209492317Y-92253662D01*
X209708441Y-92114590D01*
X209853431Y-91902390D01*
X209904440Y-91650500D01*
X209904440Y-90750500D01*
X209860162Y-90515183D01*
X209721090Y-90299059D01*
X209623363Y-90232285D01*
X209673440Y-89985000D01*
X209673440Y-89165500D01*
X213412000Y-89165500D01*
X213412000Y-107795455D01*
G36*
X183684060Y-94356000D02*
X183728338Y-94591317D01*
X183867410Y-94807441D01*
X184079610Y-94952431D01*
X184331500Y-95003440D01*
X184571500Y-95003440D01*
X184571500Y-95929060D01*
X184410000Y-95929060D01*
X184174683Y-95973338D01*
X183958559Y-96112410D01*
X183887437Y-96216500D01*
X183630000Y-96216500D01*
X183339161Y-96274352D01*
X183092599Y-96439099D01*
X181707599Y-97824099D01*
X181542852Y-98070661D01*
X181485000Y-98361500D01*
X181485000Y-103473895D01*
X181343559Y-103564910D01*
X181198569Y-103777110D01*
X181147560Y-104029000D01*
X181147560Y-104529000D01*
X181191838Y-104764317D01*
X181330910Y-104980441D01*
X181387343Y-105019000D01*
X180464500Y-105019000D01*
X180173661Y-105076852D01*
X179927099Y-105241599D01*
X179537138Y-105631560D01*
X178664500Y-105631560D01*
X178429183Y-105675838D01*
X178213059Y-105814910D01*
X178129000Y-105937934D01*
X178129000Y-104141525D01*
X178304801Y-104317327D01*
X178538190Y-104414000D01*
X179228750Y-104414000D01*
X179387500Y-104255250D01*
X179387500Y-103456000D01*
X179641500Y-103456000D01*
X179641500Y-104255250D01*
X179800250Y-104414000D01*
X180490810Y-104414000D01*
X180724199Y-104317327D01*
X180902827Y-104138698D01*
X180999500Y-103905309D01*
X180999500Y-103614750D01*
X180840750Y-103456000D01*
X179641500Y-103456000D01*
X179387500Y-103456000D01*
X179367500Y-103456000D01*
X179367500Y-103202000D01*
X179387500Y-103202000D01*
X179387500Y-102402750D01*
X179641500Y-102402750D01*
X179641500Y-103202000D01*
X180840750Y-103202000D01*
X180999500Y-103043250D01*
X180999500Y-102752691D01*
X180902827Y-102519302D01*
X180724199Y-102340673D01*
X180490810Y-102244000D01*
X179800250Y-102244000D01*
X179641500Y-102402750D01*
X179387500Y-102402750D01*
X179228750Y-102244000D01*
X178538190Y-102244000D01*
X178304801Y-102340673D01*
X178129000Y-102516475D01*
X178129000Y-100313967D01*
X178200410Y-100424941D01*
X178412610Y-100569931D01*
X178664500Y-100620940D01*
X180364500Y-100620940D01*
X180599817Y-100576662D01*
X180815941Y-100437590D01*
X180960931Y-100225390D01*
X181011940Y-99973500D01*
X181011940Y-98273500D01*
X180967662Y-98038183D01*
X180828590Y-97822059D01*
X180616390Y-97677069D01*
X180364500Y-97626060D01*
X180274500Y-97626060D01*
X180274500Y-96104218D01*
X180482941Y-95970090D01*
X180627931Y-95757890D01*
X180678940Y-95506000D01*
X180678940Y-94006000D01*
X180634662Y-93770683D01*
X180527741Y-93604523D01*
X180627931Y-93457890D01*
X180676915Y-93216000D01*
X183684060Y-93216000D01*
X183684060Y-94356000D01*
X183684060Y-94356000D01*
G37*
X183684060Y-94356000D02*
X183728338Y-94591317D01*
X183867410Y-94807441D01*
X184079610Y-94952431D01*
X184331500Y-95003440D01*
X184571500Y-95003440D01*
X184571500Y-95929060D01*
X184410000Y-95929060D01*
X184174683Y-95973338D01*
X183958559Y-96112410D01*
X183887437Y-96216500D01*
X183630000Y-96216500D01*
X183339161Y-96274352D01*
X183092599Y-96439099D01*
X181707599Y-97824099D01*
X181542852Y-98070661D01*
X181485000Y-98361500D01*
X181485000Y-103473895D01*
X181343559Y-103564910D01*
X181198569Y-103777110D01*
X181147560Y-104029000D01*
X181147560Y-104529000D01*
X181191838Y-104764317D01*
X181330910Y-104980441D01*
X181387343Y-105019000D01*
X180464500Y-105019000D01*
X180173661Y-105076852D01*
X179927099Y-105241599D01*
X179537138Y-105631560D01*
X178664500Y-105631560D01*
X178429183Y-105675838D01*
X178213059Y-105814910D01*
X178129000Y-105937934D01*
X178129000Y-104141525D01*
X178304801Y-104317327D01*
X178538190Y-104414000D01*
X179228750Y-104414000D01*
X179387500Y-104255250D01*
X179387500Y-103456000D01*
X179641500Y-103456000D01*
X179641500Y-104255250D01*
X179800250Y-104414000D01*
X180490810Y-104414000D01*
X180724199Y-104317327D01*
X180902827Y-104138698D01*
X180999500Y-103905309D01*
X180999500Y-103614750D01*
X180840750Y-103456000D01*
X179641500Y-103456000D01*
X179387500Y-103456000D01*
X179367500Y-103456000D01*
X179367500Y-103202000D01*
X179387500Y-103202000D01*
X179387500Y-102402750D01*
X179641500Y-102402750D01*
X179641500Y-103202000D01*
X180840750Y-103202000D01*
X180999500Y-103043250D01*
X180999500Y-102752691D01*
X180902827Y-102519302D01*
X180724199Y-102340673D01*
X180490810Y-102244000D01*
X179800250Y-102244000D01*
X179641500Y-102402750D01*
X179387500Y-102402750D01*
X179228750Y-102244000D01*
X178538190Y-102244000D01*
X178304801Y-102340673D01*
X178129000Y-102516475D01*
X178129000Y-100313967D01*
X178200410Y-100424941D01*
X178412610Y-100569931D01*
X178664500Y-100620940D01*
X180364500Y-100620940D01*
X180599817Y-100576662D01*
X180815941Y-100437590D01*
X180960931Y-100225390D01*
X181011940Y-99973500D01*
X181011940Y-98273500D01*
X180967662Y-98038183D01*
X180828590Y-97822059D01*
X180616390Y-97677069D01*
X180364500Y-97626060D01*
X180274500Y-97626060D01*
X180274500Y-96104218D01*
X180482941Y-95970090D01*
X180627931Y-95757890D01*
X180678940Y-95506000D01*
X180678940Y-94006000D01*
X180634662Y-93770683D01*
X180527741Y-93604523D01*
X180627931Y-93457890D01*
X180676915Y-93216000D01*
X183684060Y-93216000D01*
X183684060Y-94356000D01*
G36*
X191346000Y-103656500D02*
X191366000Y-103656500D01*
X191366000Y-103910500D01*
X191346000Y-103910500D01*
X191346000Y-104859750D01*
X191504750Y-105018500D01*
X191912198Y-105018500D01*
X191709198Y-105221500D01*
X191013844Y-105221500D01*
X190971090Y-105155059D01*
X190771229Y-105018500D01*
X190933250Y-105018500D01*
X191092000Y-104859750D01*
X191092000Y-103910500D01*
X191072000Y-103910500D01*
X191072000Y-103656500D01*
X191092000Y-103656500D01*
X191092000Y-103636500D01*
X191346000Y-103636500D01*
X191346000Y-103656500D01*
X191346000Y-103656500D01*
G37*
X191346000Y-103656500D02*
X191366000Y-103656500D01*
X191366000Y-103910500D01*
X191346000Y-103910500D01*
X191346000Y-104859750D01*
X191504750Y-105018500D01*
X191912198Y-105018500D01*
X191709198Y-105221500D01*
X191013844Y-105221500D01*
X190971090Y-105155059D01*
X190771229Y-105018500D01*
X190933250Y-105018500D01*
X191092000Y-104859750D01*
X191092000Y-103910500D01*
X191072000Y-103910500D01*
X191072000Y-103656500D01*
X191092000Y-103656500D01*
X191092000Y-103636500D01*
X191346000Y-103636500D01*
X191346000Y-103656500D01*
G36*
X200708500Y-98606940D02*
X200986060Y-98606940D01*
X200986060Y-98884500D01*
X201010444Y-99014089D01*
X200986060Y-99134500D01*
X200986060Y-99684500D01*
X201010444Y-99814089D01*
X200986060Y-99934500D01*
X200986060Y-100484500D01*
X201005950Y-100590205D01*
X200998500Y-100608190D01*
X200998500Y-100723750D01*
X201094901Y-100820151D01*
X201169410Y-100935941D01*
X201276897Y-101009384D01*
X201182059Y-101070410D01*
X201093005Y-101200745D01*
X200998500Y-101295250D01*
X200998500Y-101410810D01*
X201006968Y-101431253D01*
X200986060Y-101534500D01*
X200986060Y-102084500D01*
X201010444Y-102214089D01*
X200986060Y-102334500D01*
X200986060Y-102884500D01*
X201010444Y-103014089D01*
X200986060Y-103134500D01*
X200986060Y-103684500D01*
X201010444Y-103814089D01*
X200986060Y-103934500D01*
X200986060Y-104212060D01*
X200708500Y-104212060D01*
X200578911Y-104236444D01*
X200458500Y-104212060D01*
X199908500Y-104212060D01*
X199778911Y-104236444D01*
X199658500Y-104212060D01*
X199108500Y-104212060D01*
X198978911Y-104236444D01*
X198858500Y-104212060D01*
X198308500Y-104212060D01*
X198178911Y-104236444D01*
X198058500Y-104212060D01*
X197911938Y-104212060D01*
X197912162Y-103954833D01*
X197770117Y-103611057D01*
X197507327Y-103347808D01*
X197163799Y-103205162D01*
X196791833Y-103204838D01*
X196448057Y-103346883D01*
X196184808Y-103609673D01*
X196042162Y-103953201D01*
X196041937Y-104212060D01*
X195908500Y-104212060D01*
X195778911Y-104236444D01*
X195658500Y-104212060D01*
X195380940Y-104212060D01*
X195380940Y-103934500D01*
X195356556Y-103804911D01*
X195380940Y-103684500D01*
X195380940Y-103466644D01*
X195583701Y-103550838D01*
X195955667Y-103551162D01*
X196299443Y-103409117D01*
X196562692Y-103146327D01*
X196705338Y-102802799D01*
X196705662Y-102430833D01*
X196563617Y-102087057D01*
X196300827Y-101823808D01*
X196157498Y-101764292D01*
X196172443Y-101758117D01*
X196435692Y-101495327D01*
X196578338Y-101151799D01*
X196578662Y-100779833D01*
X196436617Y-100436057D01*
X196173827Y-100172808D01*
X195830299Y-100030162D01*
X195458333Y-100029838D01*
X195330886Y-100082498D01*
X195230100Y-100082498D01*
X195273995Y-100018255D01*
X195368500Y-99923750D01*
X195368500Y-99808190D01*
X195360032Y-99787747D01*
X195380940Y-99684500D01*
X195380940Y-99134500D01*
X195356556Y-99004911D01*
X195380940Y-98884500D01*
X195380940Y-98606940D01*
X195658500Y-98606940D01*
X195788089Y-98582556D01*
X195908500Y-98606940D01*
X196458500Y-98606940D01*
X196588089Y-98582556D01*
X196708500Y-98606940D01*
X196925489Y-98606940D01*
X196867662Y-98746201D01*
X196867338Y-99118167D01*
X197009383Y-99461943D01*
X197272173Y-99725192D01*
X197615701Y-99867838D01*
X197987667Y-99868162D01*
X198331443Y-99726117D01*
X198594692Y-99463327D01*
X198737338Y-99119799D01*
X198737662Y-98747833D01*
X198679446Y-98606940D01*
X198858500Y-98606940D01*
X198988089Y-98582556D01*
X199108500Y-98606940D01*
X199658500Y-98606940D01*
X199788089Y-98582556D01*
X199908500Y-98606940D01*
X200458500Y-98606940D01*
X200588089Y-98582556D01*
X200708500Y-98606940D01*
X200708500Y-98606940D01*
G37*
X200708500Y-98606940D02*
X200986060Y-98606940D01*
X200986060Y-98884500D01*
X201010444Y-99014089D01*
X200986060Y-99134500D01*
X200986060Y-99684500D01*
X201010444Y-99814089D01*
X200986060Y-99934500D01*
X200986060Y-100484500D01*
X201005950Y-100590205D01*
X200998500Y-100608190D01*
X200998500Y-100723750D01*
X201094901Y-100820151D01*
X201169410Y-100935941D01*
X201276897Y-101009384D01*
X201182059Y-101070410D01*
X201093005Y-101200745D01*
X200998500Y-101295250D01*
X200998500Y-101410810D01*
X201006968Y-101431253D01*
X200986060Y-101534500D01*
X200986060Y-102084500D01*
X201010444Y-102214089D01*
X200986060Y-102334500D01*
X200986060Y-102884500D01*
X201010444Y-103014089D01*
X200986060Y-103134500D01*
X200986060Y-103684500D01*
X201010444Y-103814089D01*
X200986060Y-103934500D01*
X200986060Y-104212060D01*
X200708500Y-104212060D01*
X200578911Y-104236444D01*
X200458500Y-104212060D01*
X199908500Y-104212060D01*
X199778911Y-104236444D01*
X199658500Y-104212060D01*
X199108500Y-104212060D01*
X198978911Y-104236444D01*
X198858500Y-104212060D01*
X198308500Y-104212060D01*
X198178911Y-104236444D01*
X198058500Y-104212060D01*
X197911938Y-104212060D01*
X197912162Y-103954833D01*
X197770117Y-103611057D01*
X197507327Y-103347808D01*
X197163799Y-103205162D01*
X196791833Y-103204838D01*
X196448057Y-103346883D01*
X196184808Y-103609673D01*
X196042162Y-103953201D01*
X196041937Y-104212060D01*
X195908500Y-104212060D01*
X195778911Y-104236444D01*
X195658500Y-104212060D01*
X195380940Y-104212060D01*
X195380940Y-103934500D01*
X195356556Y-103804911D01*
X195380940Y-103684500D01*
X195380940Y-103466644D01*
X195583701Y-103550838D01*
X195955667Y-103551162D01*
X196299443Y-103409117D01*
X196562692Y-103146327D01*
X196705338Y-102802799D01*
X196705662Y-102430833D01*
X196563617Y-102087057D01*
X196300827Y-101823808D01*
X196157498Y-101764292D01*
X196172443Y-101758117D01*
X196435692Y-101495327D01*
X196578338Y-101151799D01*
X196578662Y-100779833D01*
X196436617Y-100436057D01*
X196173827Y-100172808D01*
X195830299Y-100030162D01*
X195458333Y-100029838D01*
X195330886Y-100082498D01*
X195230100Y-100082498D01*
X195273995Y-100018255D01*
X195368500Y-99923750D01*
X195368500Y-99808190D01*
X195360032Y-99787747D01*
X195380940Y-99684500D01*
X195380940Y-99134500D01*
X195356556Y-99004911D01*
X195380940Y-98884500D01*
X195380940Y-98606940D01*
X195658500Y-98606940D01*
X195788089Y-98582556D01*
X195908500Y-98606940D01*
X196458500Y-98606940D01*
X196588089Y-98582556D01*
X196708500Y-98606940D01*
X196925489Y-98606940D01*
X196867662Y-98746201D01*
X196867338Y-99118167D01*
X197009383Y-99461943D01*
X197272173Y-99725192D01*
X197615701Y-99867838D01*
X197987667Y-99868162D01*
X198331443Y-99726117D01*
X198594692Y-99463327D01*
X198737338Y-99119799D01*
X198737662Y-98747833D01*
X198679446Y-98606940D01*
X198858500Y-98606940D01*
X198988089Y-98582556D01*
X199108500Y-98606940D01*
X199658500Y-98606940D01*
X199788089Y-98582556D01*
X199908500Y-98606940D01*
X200458500Y-98606940D01*
X200588089Y-98582556D01*
X200708500Y-98606940D01*
G36*
X205249662Y-89348201D02*
X205249338Y-89720167D01*
X205391383Y-90063943D01*
X205654173Y-90327192D01*
X205997701Y-90469838D01*
X206369667Y-90470162D01*
X206538673Y-90400330D01*
X206561910Y-90436441D01*
X206774110Y-90581431D01*
X206937113Y-90614440D01*
X206909560Y-90750500D01*
X206909560Y-90910138D01*
X205715612Y-92104086D01*
X205662198Y-92050673D01*
X205428809Y-91954000D01*
X205188250Y-91954000D01*
X205029500Y-92112750D01*
X205029500Y-92837000D01*
X205049500Y-92837000D01*
X205049500Y-93091000D01*
X205029500Y-93091000D01*
X205029500Y-94107000D01*
X205049500Y-94107000D01*
X205049500Y-94361000D01*
X205029500Y-94361000D01*
X205029500Y-95085250D01*
X205188250Y-95244000D01*
X205424500Y-95244000D01*
X205424500Y-96770666D01*
X205338057Y-96806383D01*
X205074808Y-97069173D01*
X205039500Y-97154204D01*
X205039500Y-96901000D01*
X204981648Y-96610161D01*
X204981648Y-96610160D01*
X204816901Y-96363599D01*
X204262122Y-95808820D01*
X204262162Y-95763333D01*
X204120117Y-95419557D01*
X203932808Y-95231921D01*
X204037817Y-95212162D01*
X204141146Y-95145671D01*
X204142802Y-95147327D01*
X204376191Y-95244000D01*
X204616750Y-95244000D01*
X204775500Y-95085250D01*
X204775500Y-94361000D01*
X204755500Y-94361000D01*
X204755500Y-94107000D01*
X204775500Y-94107000D01*
X204775500Y-93091000D01*
X204755500Y-93091000D01*
X204755500Y-92837000D01*
X204775500Y-92837000D01*
X204775500Y-92112750D01*
X204616750Y-91954000D01*
X204376191Y-91954000D01*
X204246220Y-92007836D01*
X204325338Y-91817299D01*
X204325662Y-91445333D01*
X204183617Y-91101557D01*
X203920827Y-90838308D01*
X203577299Y-90695662D01*
X203205333Y-90695338D01*
X202861557Y-90837383D01*
X202598308Y-91100173D01*
X202455662Y-91443701D01*
X202455338Y-91815667D01*
X202576382Y-92108615D01*
X202551059Y-92124910D01*
X202408879Y-92332998D01*
X202358028Y-92332998D01*
X202379969Y-92300160D01*
X202421556Y-92263684D01*
X202415017Y-92217748D01*
X202466287Y-91960000D01*
X202406532Y-91659594D01*
X202236366Y-91404921D01*
X201981693Y-91234755D01*
X201681287Y-91175000D01*
X201496500Y-91175000D01*
X201496500Y-90990213D01*
X201469000Y-90851962D01*
X201469000Y-90555000D01*
X201442728Y-90422922D01*
X201534698Y-90384827D01*
X201713327Y-90206199D01*
X201810000Y-89972810D01*
X201810000Y-89757250D01*
X201651250Y-89598500D01*
X200902000Y-89598500D01*
X200902000Y-89618500D01*
X200648000Y-89618500D01*
X200648000Y-89598500D01*
X200628000Y-89598500D01*
X200628000Y-89344500D01*
X200648000Y-89344500D01*
X200648000Y-89324500D01*
X200902000Y-89324500D01*
X200902000Y-89344500D01*
X201651250Y-89344500D01*
X201810000Y-89185750D01*
X201810000Y-89165500D01*
X205325526Y-89165500D01*
X205249662Y-89348201D01*
X205249662Y-89348201D01*
G37*
X205249662Y-89348201D02*
X205249338Y-89720167D01*
X205391383Y-90063943D01*
X205654173Y-90327192D01*
X205997701Y-90469838D01*
X206369667Y-90470162D01*
X206538673Y-90400330D01*
X206561910Y-90436441D01*
X206774110Y-90581431D01*
X206937113Y-90614440D01*
X206909560Y-90750500D01*
X206909560Y-90910138D01*
X205715612Y-92104086D01*
X205662198Y-92050673D01*
X205428809Y-91954000D01*
X205188250Y-91954000D01*
X205029500Y-92112750D01*
X205029500Y-92837000D01*
X205049500Y-92837000D01*
X205049500Y-93091000D01*
X205029500Y-93091000D01*
X205029500Y-94107000D01*
X205049500Y-94107000D01*
X205049500Y-94361000D01*
X205029500Y-94361000D01*
X205029500Y-95085250D01*
X205188250Y-95244000D01*
X205424500Y-95244000D01*
X205424500Y-96770666D01*
X205338057Y-96806383D01*
X205074808Y-97069173D01*
X205039500Y-97154204D01*
X205039500Y-96901000D01*
X204981648Y-96610161D01*
X204981648Y-96610160D01*
X204816901Y-96363599D01*
X204262122Y-95808820D01*
X204262162Y-95763333D01*
X204120117Y-95419557D01*
X203932808Y-95231921D01*
X204037817Y-95212162D01*
X204141146Y-95145671D01*
X204142802Y-95147327D01*
X204376191Y-95244000D01*
X204616750Y-95244000D01*
X204775500Y-95085250D01*
X204775500Y-94361000D01*
X204755500Y-94361000D01*
X204755500Y-94107000D01*
X204775500Y-94107000D01*
X204775500Y-93091000D01*
X204755500Y-93091000D01*
X204755500Y-92837000D01*
X204775500Y-92837000D01*
X204775500Y-92112750D01*
X204616750Y-91954000D01*
X204376191Y-91954000D01*
X204246220Y-92007836D01*
X204325338Y-91817299D01*
X204325662Y-91445333D01*
X204183617Y-91101557D01*
X203920827Y-90838308D01*
X203577299Y-90695662D01*
X203205333Y-90695338D01*
X202861557Y-90837383D01*
X202598308Y-91100173D01*
X202455662Y-91443701D01*
X202455338Y-91815667D01*
X202576382Y-92108615D01*
X202551059Y-92124910D01*
X202408879Y-92332998D01*
X202358028Y-92332998D01*
X202379969Y-92300160D01*
X202421556Y-92263684D01*
X202415017Y-92217748D01*
X202466287Y-91960000D01*
X202406532Y-91659594D01*
X202236366Y-91404921D01*
X201981693Y-91234755D01*
X201681287Y-91175000D01*
X201496500Y-91175000D01*
X201496500Y-90990213D01*
X201469000Y-90851962D01*
X201469000Y-90555000D01*
X201442728Y-90422922D01*
X201534698Y-90384827D01*
X201713327Y-90206199D01*
X201810000Y-89972810D01*
X201810000Y-89757250D01*
X201651250Y-89598500D01*
X200902000Y-89598500D01*
X200902000Y-89618500D01*
X200648000Y-89618500D01*
X200648000Y-89598500D01*
X200628000Y-89598500D01*
X200628000Y-89344500D01*
X200648000Y-89344500D01*
X200648000Y-89324500D01*
X200902000Y-89324500D01*
X200902000Y-89344500D01*
X201651250Y-89344500D01*
X201810000Y-89185750D01*
X201810000Y-89165500D01*
X205325526Y-89165500D01*
X205249662Y-89348201D01*
G36*
X199871340Y-95128469D02*
X199907816Y-95170056D01*
X199953752Y-95163517D01*
X200211500Y-95214787D01*
X200461500Y-95165058D01*
X200711500Y-95214787D01*
X200778454Y-95201469D01*
X200677662Y-95444201D01*
X200677621Y-95491077D01*
X200456638Y-95712060D01*
X199908500Y-95712060D01*
X199778911Y-95736444D01*
X199658500Y-95712060D01*
X199108500Y-95712060D01*
X198978911Y-95736444D01*
X198858500Y-95712060D01*
X198308500Y-95712060D01*
X198178911Y-95736444D01*
X198058500Y-95712060D01*
X197794965Y-95712060D01*
X197826827Y-95680198D01*
X197923500Y-95446809D01*
X197923500Y-95239075D01*
X198060201Y-95295838D01*
X198432167Y-95296162D01*
X198775943Y-95154117D01*
X198829584Y-95100569D01*
X198911094Y-95155032D01*
X199211500Y-95214787D01*
X199469248Y-95163517D01*
X199515184Y-95170056D01*
X199551660Y-95128469D01*
X199711500Y-95021668D01*
X199871340Y-95128469D01*
X199871340Y-95128469D01*
G37*
X199871340Y-95128469D02*
X199907816Y-95170056D01*
X199953752Y-95163517D01*
X200211500Y-95214787D01*
X200461500Y-95165058D01*
X200711500Y-95214787D01*
X200778454Y-95201469D01*
X200677662Y-95444201D01*
X200677621Y-95491077D01*
X200456638Y-95712060D01*
X199908500Y-95712060D01*
X199778911Y-95736444D01*
X199658500Y-95712060D01*
X199108500Y-95712060D01*
X198978911Y-95736444D01*
X198858500Y-95712060D01*
X198308500Y-95712060D01*
X198178911Y-95736444D01*
X198058500Y-95712060D01*
X197794965Y-95712060D01*
X197826827Y-95680198D01*
X197923500Y-95446809D01*
X197923500Y-95239075D01*
X198060201Y-95295838D01*
X198432167Y-95296162D01*
X198775943Y-95154117D01*
X198829584Y-95100569D01*
X198911094Y-95155032D01*
X199211500Y-95214787D01*
X199469248Y-95163517D01*
X199515184Y-95170056D01*
X199551660Y-95128469D01*
X199711500Y-95021668D01*
X199871340Y-95128469D01*
G36*
X186413500Y-89279690D02*
X186413500Y-89870250D01*
X186482360Y-89939110D01*
X186331500Y-89908560D01*
X184331500Y-89908560D01*
X184096183Y-89952838D01*
X183880059Y-90091910D01*
X183735069Y-90304110D01*
X183684060Y-90556000D01*
X183684060Y-91696000D01*
X180677058Y-91696000D01*
X180634662Y-91470683D01*
X180529018Y-91306508D01*
X180569827Y-91265699D01*
X180666500Y-91032310D01*
X180666500Y-90441750D01*
X180507750Y-90283000D01*
X179158500Y-90283000D01*
X179158500Y-90303000D01*
X178904500Y-90303000D01*
X178904500Y-90283000D01*
X178884500Y-90283000D01*
X178884500Y-90029000D01*
X178904500Y-90029000D01*
X178904500Y-90009000D01*
X179158500Y-90009000D01*
X179158500Y-90029000D01*
X180507750Y-90029000D01*
X180666500Y-89870250D01*
X180666500Y-89279690D01*
X180619201Y-89165500D01*
X186460799Y-89165500D01*
X186413500Y-89279690D01*
X186413500Y-89279690D01*
G37*
X186413500Y-89279690D02*
X186413500Y-89870250D01*
X186482360Y-89939110D01*
X186331500Y-89908560D01*
X184331500Y-89908560D01*
X184096183Y-89952838D01*
X183880059Y-90091910D01*
X183735069Y-90304110D01*
X183684060Y-90556000D01*
X183684060Y-91696000D01*
X180677058Y-91696000D01*
X180634662Y-91470683D01*
X180529018Y-91306508D01*
X180569827Y-91265699D01*
X180666500Y-91032310D01*
X180666500Y-90441750D01*
X180507750Y-90283000D01*
X179158500Y-90283000D01*
X179158500Y-90303000D01*
X178904500Y-90303000D01*
X178904500Y-90283000D01*
X178884500Y-90283000D01*
X178884500Y-90029000D01*
X178904500Y-90029000D01*
X178904500Y-90009000D01*
X179158500Y-90009000D01*
X179158500Y-90029000D01*
X180507750Y-90029000D01*
X180666500Y-89870250D01*
X180666500Y-89279690D01*
X180619201Y-89165500D01*
X186460799Y-89165500D01*
X186413500Y-89279690D01*
G36*
X197415500Y-89926698D02*
X197415500Y-89782691D01*
X197318827Y-89549302D01*
X197140199Y-89370673D01*
X196906810Y-89274000D01*
X196691250Y-89274000D01*
X196532500Y-89432750D01*
X196532500Y-90182000D01*
X196552500Y-90182000D01*
X196552500Y-90436000D01*
X196532500Y-90436000D01*
X196532500Y-90456000D01*
X196278500Y-90456000D01*
X196278500Y-90436000D01*
X196258500Y-90436000D01*
X196258500Y-90182000D01*
X196278500Y-90182000D01*
X196278500Y-89432750D01*
X196119750Y-89274000D01*
X195904190Y-89274000D01*
X195670801Y-89370673D01*
X195492173Y-89549302D01*
X195395500Y-89782691D01*
X195395500Y-89918078D01*
X195348500Y-89908560D01*
X193348500Y-89908560D01*
X193113183Y-89952838D01*
X192897059Y-90091910D01*
X192752069Y-90304110D01*
X192701060Y-90556000D01*
X192701060Y-91696000D01*
X189694058Y-91696000D01*
X189651662Y-91470683D01*
X189546018Y-91306508D01*
X189586827Y-91265699D01*
X189683500Y-91032310D01*
X189683500Y-90441750D01*
X189524750Y-90283000D01*
X188175500Y-90283000D01*
X188175500Y-90303000D01*
X187921500Y-90303000D01*
X187921500Y-90283000D01*
X187901500Y-90283000D01*
X187901500Y-90029000D01*
X187921500Y-90029000D01*
X187921500Y-90009000D01*
X188175500Y-90009000D01*
X188175500Y-90029000D01*
X189524750Y-90029000D01*
X189683500Y-89870250D01*
X189683500Y-89279690D01*
X189636201Y-89165500D01*
X198176698Y-89165500D01*
X197415500Y-89926698D01*
X197415500Y-89926698D01*
G37*
X197415500Y-89926698D02*
X197415500Y-89782691D01*
X197318827Y-89549302D01*
X197140199Y-89370673D01*
X196906810Y-89274000D01*
X196691250Y-89274000D01*
X196532500Y-89432750D01*
X196532500Y-90182000D01*
X196552500Y-90182000D01*
X196552500Y-90436000D01*
X196532500Y-90436000D01*
X196532500Y-90456000D01*
X196278500Y-90456000D01*
X196278500Y-90436000D01*
X196258500Y-90436000D01*
X196258500Y-90182000D01*
X196278500Y-90182000D01*
X196278500Y-89432750D01*
X196119750Y-89274000D01*
X195904190Y-89274000D01*
X195670801Y-89370673D01*
X195492173Y-89549302D01*
X195395500Y-89782691D01*
X195395500Y-89918078D01*
X195348500Y-89908560D01*
X193348500Y-89908560D01*
X193113183Y-89952838D01*
X192897059Y-90091910D01*
X192752069Y-90304110D01*
X192701060Y-90556000D01*
X192701060Y-91696000D01*
X189694058Y-91696000D01*
X189651662Y-91470683D01*
X189546018Y-91306508D01*
X189586827Y-91265699D01*
X189683500Y-91032310D01*
X189683500Y-90441750D01*
X189524750Y-90283000D01*
X188175500Y-90283000D01*
X188175500Y-90303000D01*
X187921500Y-90303000D01*
X187921500Y-90283000D01*
X187901500Y-90283000D01*
X187901500Y-90029000D01*
X187921500Y-90029000D01*
X187921500Y-90009000D01*
X188175500Y-90009000D01*
X188175500Y-90029000D01*
X189524750Y-90029000D01*
X189683500Y-89870250D01*
X189683500Y-89279690D01*
X189636201Y-89165500D01*
X198176698Y-89165500D01*
X197415500Y-89926698D01*
M02*
